<svg width="32" height="32" viewBox="0 0 736 820" fill="none" xmlns="http://www.w3.org/2000/svg">
    <path
        d="M320.226 14.6033C323.116 21.0133 334.406 24.9333 335.996 32.8333C337.586 40.7333 347.546 47.0033 348.526 54.3033C349.516 61.5933 363.616 69.0033 360.226 75.6033C362.216 74.4333 364.336 73.1733 366.226 72.6033C362.246 72.1433 356.496 63.3833 358.226 59.6033C350.336 61.4033 346.156 50.4033 353.226 46.6033C351.556 47.0433 350.886 49.0633 349.226 49.6033C345.516 42.0733 343.646 38.6333 338.536 31.3033C333.416 23.9633 333.106 20.5233 339.296 13.6733C345.496 6.8333 331.726 -0.456706 326.226 0.603294C320.446 2.79329 318.326 9.13329 320.226 14.6033Z"
        fill="#38349D" stroke="black" />
    <path
        d="M353.226 46.6031C346.156 50.4031 350.336 61.4031 358.226 59.6031C359.346 57.1531 366.096 54.0131 362.976 49.8531C359.856 45.6831 357.606 44.9031 353.226 46.6031Z"
        fill="#9329C6" stroke="black" />
    <path
        d="M366.226 72.6031C364.336 73.1731 362.216 74.4331 360.226 75.6031C350.526 81.3031 343.706 92.5131 343.226 103.603C343.186 104.503 342.826 106.813 343.226 107.603C343.576 107.653 344.056 108.273 344.226 108.603C345.916 111.853 346.396 115.363 348.226 118.603C349.766 120.743 353.176 124.983 355.226 126.603C360.676 128.803 366.566 132.813 372.226 133.603C373.496 133.783 374.936 133.603 376.226 133.603C376.726 133.603 377.226 133.603 377.226 133.603C382.326 131.373 388.276 130.133 393.226 126.603C396.716 123.673 399.876 119.053 402.226 115.603C402.666 114.953 402.956 114.333 403.226 113.603C404.086 111.263 404.996 108.113 405.226 105.603C405.346 104.293 405.226 102.913 405.226 101.603C405.226 100.623 405.326 99.5731 405.226 98.6031C403.886 85.6931 393.216 77.3431 382.226 72.6031C377.286 71.2631 371.116 71.1231 366.226 72.6031Z"
        fill="#9536E2" stroke="black" />
    <path
        d="M220.226 102.603C226.546 94.8329 242.326 102.193 251.226 99.6029C251.266 106.993 258.296 107.353 264.226 106.603C264.726 106.603 265.756 106.723 266.226 106.603C268.956 104.493 267.836 91.9029 265.226 90.6029C260.076 91.1229 251.786 88.2329 251.226 95.6029C244.296 94.6729 231.586 96.8429 225.226 95.6029C218.876 94.3529 208.876 89.3429 209.236 99.5929C209.596 109.853 213.106 111.063 211.226 122.603C209.346 134.143 217.186 135.203 217.226 124.603C217.266 114.003 214.456 109.693 220.226 102.603Z"
        fill="#A41889" stroke="black" />
    <path
        d="M309.226 117.603C317.206 119.053 321.296 104.773 313.226 102.603C305.026 100.403 300.916 114.333 309.226 117.603Z"
        fill="#B81AA9" stroke="black" />
    <path
        d="M309.226 117.603C313.906 119.443 318.446 112.073 323.226 110.603C324.646 109.923 326.686 109.133 328.226 108.603C332.136 107.263 338.596 106.933 343.226 107.603C342.826 106.813 343.186 104.503 343.226 103.603C337.986 104.203 332.436 102.803 327.226 103.603C319.316 105.843 320.396 105.743 313.226 102.603C321.296 104.773 317.206 119.053 309.226 117.603Z"
        fill="#881973" stroke="black" />
    <path
        d="M438.226 131.603C439.106 125.673 435.366 124.673 431.226 122.603C422.416 121.983 430.976 108.693 425.226 104.603C425.726 110.933 424.476 121.573 424.256 128.573C424.036 135.573 436.416 139.373 438.226 131.603Z"
        fill="#AB1B8A" stroke="black" />
    <path
        d="M403.226 113.603C404.656 111.853 406.256 110.283 406.226 107.603C410.936 108.443 416.006 107.133 421.226 107.603C417.366 104.823 410.096 106.293 405.226 105.603C404.996 108.113 404.086 111.263 403.226 113.603Z"
        fill="#260746" stroke="black" />
    <path
        d="M242.226 138.603C241.726 138.603 241.226 138.603 241.226 138.603C241.566 140.213 243.096 141.963 243.226 143.603C245.706 145.083 254.276 143.653 257.226 143.603C260.176 143.553 268.946 145.203 271.226 143.603C273.516 137.063 268.176 126.763 271.226 120.603C272.776 117.463 279.116 118.273 282.226 118.603C285.336 118.933 292.556 117.463 295.226 118.603C297.896 119.743 307.546 117.333 303.226 114.603C291.226 114.603 279.226 114.603 267.226 114.603C265.436 122.253 266.516 130.583 266.226 138.603C258.226 138.603 250.226 138.603 242.226 138.603Z"
        fill="#8E1C75" stroke="black" />
    <path
        d="M341.226 123.603C341.566 123.833 342.736 123.663 343.226 123.603C343.646 122.243 345.026 121.273 346.226 120.603C345.916 114.623 339.796 120.193 341.226 123.603Z"
        fill="#8F3153" stroke="black" />
    <path
        d="M355.226 126.603C353.176 124.983 349.766 120.743 348.226 118.603C348.696 120.533 351.676 121.293 351.226 123.603C348.626 128.543 336.886 139.193 346.226 141.603C347.516 135.673 350.316 130.573 351.226 124.603C353.036 124.223 353.776 126.023 355.226 126.603Z"
        fill="#24225C" stroke="black" />
    <path
        d="M336.226 125.603C332.766 124.613 330.326 127.483 330.226 130.603C333.326 131.403 336.936 129.023 336.226 125.603Z"
        fill="#9C364A" stroke="black" />
    <path
        d="M427.226 142.603C431.176 145.063 434.816 148.423 438.226 151.603C445.116 156.423 451.936 161.793 458.226 167.603C463.316 170.893 469.296 169.503 465.476 164.353C461.656 159.203 458.846 158.583 454.226 155.603C441.336 145.163 427.686 135.663 413.226 128.603C416.526 133.593 422.096 138.633 427.226 142.603Z"
        fill="#A91B66" stroke="black" />
</svg>