<svg width="736" height="820" viewBox="0 0 736 820" fill="none" xmlns="http://www.w3.org/2000/svg">
<path d="M320.226 14.6033C323.116 21.0133 334.406 24.9333 335.996 32.8333C337.586 40.7333 347.546 47.0033 348.526 54.3033C349.516 61.5933 363.616 69.0033 360.226 75.6033C362.216 74.4333 364.336 73.1733 366.226 72.6033C362.246 72.1433 356.496 63.3833 358.226 59.6033C350.336 61.4033 346.156 50.4033 353.226 46.6033C351.556 47.0433 350.886 49.0633 349.226 49.6033C345.516 42.0733 343.646 38.6333 338.536 31.3033C333.416 23.9633 333.106 20.5233 339.296 13.6733C345.496 6.8333 331.726 -0.456706 326.226 0.603294C320.446 2.79329 318.326 9.13329 320.226 14.6033Z" fill="#38349D" stroke="black"/>
<path d="M353.226 46.6031C346.156 50.4031 350.336 61.4031 358.226 59.6031C359.346 57.1531 366.096 54.0131 362.976 49.8531C359.856 45.6831 357.606 44.9031 353.226 46.6031Z" fill="#9329C6" stroke="black"/>
<path d="M366.226 72.6031C364.336 73.1731 362.216 74.4331 360.226 75.6031C350.526 81.3031 343.706 92.5131 343.226 103.603C343.186 104.503 342.826 106.813 343.226 107.603C343.576 107.653 344.056 108.273 344.226 108.603C345.916 111.853 346.396 115.363 348.226 118.603C349.766 120.743 353.176 124.983 355.226 126.603C360.676 128.803 366.566 132.813 372.226 133.603C373.496 133.783 374.936 133.603 376.226 133.603C376.726 133.603 377.226 133.603 377.226 133.603C382.326 131.373 388.276 130.133 393.226 126.603C396.716 123.673 399.876 119.053 402.226 115.603C402.666 114.953 402.956 114.333 403.226 113.603C404.086 111.263 404.996 108.113 405.226 105.603C405.346 104.293 405.226 102.913 405.226 101.603C405.226 100.623 405.326 99.5731 405.226 98.6031C403.886 85.6931 393.216 77.3431 382.226 72.6031C377.286 71.2631 371.116 71.1231 366.226 72.6031Z" fill="#9536E2" stroke="black"/>
<path d="M220.226 102.603C226.546 94.8329 242.326 102.193 251.226 99.6029C251.266 106.993 258.296 107.353 264.226 106.603C264.726 106.603 265.756 106.723 266.226 106.603C268.956 104.493 267.836 91.9029 265.226 90.6029C260.076 91.1229 251.786 88.2329 251.226 95.6029C244.296 94.6729 231.586 96.8429 225.226 95.6029C218.876 94.3529 208.876 89.3429 209.236 99.5929C209.596 109.853 213.106 111.063 211.226 122.603C209.346 134.143 217.186 135.203 217.226 124.603C217.266 114.003 214.456 109.693 220.226 102.603Z" fill="#A41889" stroke="black"/>
<path d="M309.226 117.603C317.206 119.053 321.296 104.773 313.226 102.603C305.026 100.403 300.916 114.333 309.226 117.603Z" fill="#B81AA9" stroke="black"/>
<path d="M309.226 117.603C313.906 119.443 318.446 112.073 323.226 110.603C324.646 109.923 326.686 109.133 328.226 108.603C332.136 107.263 338.596 106.933 343.226 107.603C342.826 106.813 343.186 104.503 343.226 103.603C337.986 104.203 332.436 102.803 327.226 103.603C319.316 105.843 320.396 105.743 313.226 102.603C321.296 104.773 317.206 119.053 309.226 117.603Z" fill="#881973" stroke="black"/>
<path d="M438.226 131.603C439.106 125.673 435.366 124.673 431.226 122.603C422.416 121.983 430.976 108.693 425.226 104.603C425.726 110.933 424.476 121.573 424.256 128.573C424.036 135.573 436.416 139.373 438.226 131.603Z" fill="#AB1B8A" stroke="black"/>
<path d="M403.226 113.603C404.656 111.853 406.256 110.283 406.226 107.603C410.936 108.443 416.006 107.133 421.226 107.603C417.366 104.823 410.096 106.293 405.226 105.603C404.996 108.113 404.086 111.263 403.226 113.603Z" fill="#260746" stroke="black"/>
<path d="M242.226 138.603C241.726 138.603 241.226 138.603 241.226 138.603C241.566 140.213 243.096 141.963 243.226 143.603C245.706 145.083 254.276 143.653 257.226 143.603C260.176 143.553 268.946 145.203 271.226 143.603C273.516 137.063 268.176 126.763 271.226 120.603C272.776 117.463 279.116 118.273 282.226 118.603C285.336 118.933 292.556 117.463 295.226 118.603C297.896 119.743 307.546 117.333 303.226 114.603C291.226 114.603 279.226 114.603 267.226 114.603C265.436 122.253 266.516 130.583 266.226 138.603C258.226 138.603 250.226 138.603 242.226 138.603Z" fill="#8E1C75" stroke="black"/>
<path d="M341.226 123.603C341.566 123.833 342.736 123.663 343.226 123.603C343.646 122.243 345.026 121.273 346.226 120.603C345.916 114.623 339.796 120.193 341.226 123.603Z" fill="#8F3153" stroke="black"/>
<path d="M355.226 126.603C353.176 124.983 349.766 120.743 348.226 118.603C348.696 120.533 351.676 121.293 351.226 123.603C348.626 128.543 336.886 139.193 346.226 141.603C347.516 135.673 350.316 130.573 351.226 124.603C353.036 124.223 353.776 126.023 355.226 126.603Z" fill="#24225C" stroke="black"/>
<path d="M336.226 125.603C332.766 124.613 330.326 127.483 330.226 130.603C333.326 131.403 336.936 129.023 336.226 125.603Z" fill="#9C364A" stroke="black"/>
<path d="M427.226 142.603C431.176 145.063 434.816 148.423 438.226 151.603C445.116 156.423 451.936 161.793 458.226 167.603C463.316 170.893 469.296 169.503 465.476 164.353C461.656 159.203 458.846 158.583 454.226 155.603C441.336 145.163 427.686 135.663 413.226 128.603C416.526 133.593 422.096 138.633 427.226 142.603Z" fill="#A91B66" stroke="black"/>
<path d="M326.226 133.603C322.196 132.983 317.086 135.943 318.226 140.603C322.256 141.223 327.366 138.263 326.226 133.603Z" fill="#943548" stroke="black"/>
<path d="M373.226 155.603C373.706 155.513 374.756 155.483 375.226 155.603C376.776 152.113 374.236 147.743 374.446 144.383C374.656 141.023 376.366 137.443 376.226 133.603C374.936 133.603 373.496 133.783 372.226 133.603C370.756 140.173 376.196 149.123 373.226 155.603Z" fill="#AA2146" stroke="black"/>
<path d="M418.226 142.603C418.766 140.183 416.696 137.513 414.226 137.603C413.686 140.623 414.446 143.843 418.226 142.603Z" fill="#544B95" stroke="black"/>
<path d="M228.226 148.603C227.966 152.303 232.906 154.463 236.226 154.603C242.276 154.853 243.606 148.223 243.226 143.603C243.096 141.963 241.566 140.213 241.226 138.603C230.176 138.603 229.206 137.753 228.226 148.603Z" fill="#B6244D" stroke="black"/>
<path d="M313.226 147.603C313.806 146.583 314.976 145.253 314.226 143.603C310.706 142.763 306.766 145.983 307.226 149.603C309.316 149.813 311.886 149.383 313.226 147.603Z" fill="#AA3D4E" stroke="black"/>
<path d="M425.226 160.603C425.436 156.723 424.706 150.183 419.226 151.603C419.526 155.093 421.256 160.063 425.226 160.603Z" fill="#2D306F" stroke="black"/>
<path d="M596.226 151.603C592.346 150.143 587.826 156.493 592.226 158.603C596.626 160.703 600.646 153.263 596.226 151.603Z" fill="#7F2EB5" stroke="black"/>
<path d="M301.226 153.603C298.066 153.113 294.766 156.463 295.226 159.603C298.436 159.743 302.276 157.193 301.226 153.603Z" fill="#BA4A58" stroke="black"/>
<path d="M338.226 154.603C331.006 151.913 327.216 164.113 333.206 166.583C339.186 169.043 344.656 156.993 338.226 154.603Z" fill="#2C3181" stroke="black"/>
<path d="M166.226 175.603C172.406 172.443 171.506 171.113 178.306 174.523C185.096 177.943 184.266 177.083 191.306 181.523C198.356 185.953 206.086 196.303 214.226 195.603C212.546 191.893 207.856 191.293 206.226 187.603C198.336 182.513 190.516 173.073 181.246 170.583C171.986 168.093 167.936 148.303 155.476 156.853C143.016 165.403 153.496 179.413 166.226 175.603Z" fill="#74193F" stroke="black"/>
<path d="M371.226 156.603C370.136 158.023 369.986 161.783 370.226 163.603C371.116 165.543 376.786 167.073 378.226 164.603C378.686 162.893 378.226 160.383 378.226 158.603C378.036 157.963 376.156 155.843 375.226 155.603C374.756 155.483 373.706 155.513 373.226 155.603C372.746 155.693 371.536 156.203 371.226 156.603Z" fill="#CD3254" stroke="black"/>
<path d="M234.226 166.603C234.716 166.683 235.756 166.723 236.226 166.603C238.236 163.463 237.136 159.473 235.226 156.603C233.716 158.293 231.566 164.553 234.226 166.603Z" fill="#8A253F" stroke="black"/>
<path d="M584.226 161.603C581.386 160.983 578.606 163.773 579.226 166.603C583.076 167.573 585.326 165.493 584.226 161.603Z" fill="#461F54" stroke="black"/>
<path d="M288.226 163.603C285.326 161.843 278.356 167.723 281.556 170.273C284.746 172.823 291.976 165.873 288.226 163.603Z" fill="#97334B" stroke="black"/>
<path d="M265.226 166.603C260.666 163.463 255.126 170.493 260.006 173.823C264.876 177.153 269.346 169.433 265.226 166.603Z" fill="#C9386E" stroke="black"/>
<path d="M332.226 169.603C327.286 180.093 320.056 192.703 319.226 203.603C323.846 192.363 329.026 181.263 332.226 169.603Z" fill="#2F3B68" stroke="black"/>
<path d="M573.226 169.603C563.486 168.283 573.226 178.503 573.226 169.603V169.603Z" fill="#651D41" stroke="black"/>
<path d="M469.226 170.603C467.126 175.073 475.096 181.353 478.446 177.823C481.796 174.303 472.426 168.743 469.226 170.603Z" fill="#30216B" stroke="black"/>
<path d="M435.226 181.603C434.866 177.923 433.066 173.903 430.226 171.603C430.586 175.283 432.386 179.303 435.226 181.603Z" fill="#333364" stroke="black"/>
<path d="M376.226 172.603C371.896 172.043 366.176 192.933 375.196 191.573C384.226 190.223 375.286 178.093 376.226 172.603Z" fill="#B12F48" stroke="black"/>
<path d="M237.226 174.603C233.776 173.363 230.906 179.493 234.146 181.663C237.386 183.833 237.866 177.043 237.226 174.603Z" fill="#732543" stroke="black"/>
<path d="M276.226 175.603C274.406 172.983 267.106 175.943 268.486 179.343C269.856 182.753 275.686 177.843 276.226 175.603Z" fill="#C44158" stroke="black"/>
<path d="M564.226 174.603C559.736 172.893 555.726 180.883 560.216 182.593C564.706 184.303 568.366 176.183 564.226 174.603Z" fill="#661E4A" stroke="black"/>
<path d="M254.226 177.603C250.076 175.713 245.526 182.383 250.226 184.603C254.916 186.813 258.556 179.573 254.226 177.603Z" fill="#C03557" stroke="black"/>
<path d="M490.226 187.603C490.456 183.753 486.106 179.823 482.226 180.603C481.216 185.153 485.976 188.753 490.226 187.603Z" fill="#412586" stroke="black"/>
<path d="M508.226 223.603C514.446 224.373 518.956 223.103 524.226 220.603C526.786 218.603 530.856 215.373 531.226 212.603C531.226 212.103 531.246 211.103 531.226 210.603C530.976 204.053 533.346 201.233 531.226 194.603C531.076 194.153 531.226 193.603 531.226 193.603C522.806 180.073 505.556 179.493 495.526 190.903C485.496 202.313 494.486 221.903 508.226 223.603Z" fill="#CD0CE6" stroke="black"/>
<path d="M227.226 184.603C224.376 185.993 219.906 190.973 218.226 193.603C218.226 193.603 218.406 194.173 218.226 194.603C213.396 206.323 219.156 220.563 232.226 223.603C237.156 223.793 241.966 223.743 246.226 221.603C254.336 216.153 257.546 205.483 255.226 196.603C254.896 196.433 254.256 195.953 254.226 195.603C254.176 195.103 254.226 194.603 254.226 194.603C252.486 191.893 248.796 188.473 246.226 186.603C245.016 185.903 242.296 183.853 241.226 183.603C239.906 183.503 238.546 183.603 237.226 183.603C235.576 183.603 233.866 183.473 232.226 183.603C230.376 183.753 228.916 184.113 227.226 184.603Z" fill="#F64757" stroke="black"/>
<path d="M252.226 190.603C250.246 190.223 248.016 187.633 246.226 186.603C248.796 188.473 252.486 191.893 254.226 194.603C254.226 194.103 254.226 193.603 254.226 193.603C256.486 189.363 264.456 189.243 264.226 183.603C258.846 182.123 256.416 191.413 252.226 190.603Z" fill="#A42E4C" stroke="black"/>
<path d="M547.226 190.603C547.226 190.603 547.726 190.583 548.226 190.603C561.186 182.313 538.896 188.103 547.226 190.603Z" fill="#5E1342" stroke="black"/>
<path d="M446.226 202.603C445.006 198.863 444.036 193.013 440.226 191.603C442.586 195.093 442.496 200.163 446.226 202.603Z" fill="#354377" stroke="black"/>
<path d="M377.226 217.603C377.646 214.883 378.696 203.763 377.226 201.603C375.556 201.603 373.896 201.603 372.226 201.603C372.226 207.273 372.226 212.933 372.226 218.603C373.646 218.373 376.226 219.083 377.226 217.603Z" fill="#BA294C" stroke="black"/>
<path d="M636.226 208.603C626.086 213.873 635.666 231.423 644.916 224.293C654.176 217.173 665.026 221.973 676.226 220.603C673.946 215.593 663.736 217.283 657.226 217.603C650.716 217.923 647.036 214.563 644.226 208.603C641.396 207.323 639.036 207.633 636.226 208.603Z" fill="#701641" stroke="black"/>
<path d="M302.226 246.603C305.016 233.973 315.316 221.623 315.226 209.603C310.496 221.593 305.546 233.573 301.226 245.603C298.246 246.413 292.816 245.913 292.226 249.603C295.506 248.383 298.696 246.823 302.226 246.603Z" fill="#25325D" stroke="black"/>
<path d="M524.226 220.603C527.006 219.283 526.566 218.903 529.226 219.603C532.096 220.363 543.656 233.503 544.196 225.633C544.736 217.753 531.216 221.223 531.226 212.603C530.856 215.373 526.786 218.603 524.226 220.603Z" fill="#6F27B5" stroke="black"/>
<path d="M459.226 227.603C456.726 222.863 455.666 217.003 451.226 213.603C453.056 218.403 454.756 225.203 459.226 227.603Z" fill="#31396C" stroke="black"/>
<path d="M208.226 219.603C208.226 219.603 207.726 219.603 207.226 219.603C205.526 221.583 204.736 223.873 205.226 226.603C211.956 230.203 217.146 218.093 208.226 219.603Z" fill="#E05862" stroke="black"/>
<path d="M254.226 224.603C254.676 224.743 255.746 224.693 256.226 224.603C258.316 222.473 255.706 219.483 253.226 219.603C253.406 221.143 252.816 223.453 254.226 224.603Z" fill="#9E3F55" stroke="black"/>
<path d="M372.226 251.603C371.606 254.263 372.996 257.503 376.226 256.603C377.946 244.943 373.936 232.143 376.226 220.603C375.226 220.603 374.226 220.603 373.226 220.603C374.586 230.703 371.856 242.283 372.226 251.603Z" fill="#9D2341" stroke="black"/>
<path d="M234.226 232.603C231.816 220.213 243.916 230.703 234.226 232.603V232.603Z" fill="#9C3448" stroke="black"/>
<path d="M261.226 230.603C261.226 230.603 261.836 230.393 262.226 230.603C263.366 230.633 263.946 232.133 265.226 231.603C265.846 228.763 263.056 225.983 260.226 226.603C260.176 228.023 260.256 229.493 261.226 230.603Z" fill="#A64F59" stroke="black"/>
<path d="M515.226 226.603C513.906 225.283 508.756 227.093 510.556 229.273C512.346 231.453 516.996 228.373 515.226 226.603Z" fill="#6F4297" stroke="black"/>
<path d="M634.226 263.603C643.406 262.873 652.316 264.733 660.226 268.603C655.676 265.183 651.816 262.283 645.226 262.603C638.636 262.913 639.286 252.103 640.226 246.603C641.166 241.103 637.716 231.183 641.226 226.603C640.386 226.683 639.056 226.763 638.226 226.603C633.456 229.693 637.696 240.863 636.226 245.603C634.756 250.343 638.896 260.403 634.226 263.603Z" fill="#121C5B" stroke="black"/>
<path d="M198.226 229.603C193.046 227.543 188.936 236.393 193.536 238.243C198.126 240.103 202.486 231.303 198.226 229.603Z" fill="#CE555E" stroke="black"/>
<path d="M547.226 230.603C546.016 234.283 551.776 240.843 554.966 237.353C558.156 233.853 550.636 229.253 547.226 230.603Z" fill="#6134B4" stroke="black"/>
<path d="M271.226 233.603C271.226 233.603 270.526 233.843 270.226 233.603C264.766 233.643 269.586 240.603 273.226 238.603C273.426 236.893 272.636 234.653 271.226 233.603Z" fill="#AE475C" stroke="black"/>
<path d="M515.226 251.603C515.356 251.633 515.226 252.603 515.226 252.603C516.326 255.693 517.046 261.253 516.226 264.603C515.406 267.953 518.106 274.883 516.226 277.603C514.246 280.473 508.646 278.583 509.236 274.593C509.826 270.603 509.226 265.673 509.226 261.603C498.966 261.813 491.706 254.683 482.976 250.853C474.236 247.033 464.856 245.113 462.226 234.603C465.356 242.263 467.296 248.233 460.226 253.603C463.816 253.603 467.056 250.913 468.226 247.603C482.126 251.893 493.996 261.073 508.226 264.603C509.926 269.243 504.796 277.133 511.226 279.603C517.656 282.063 518.186 273.013 517.226 268.603C520.446 270.593 522.606 275.123 527.226 273.603C527.296 269.173 520.926 267.793 517.226 267.603C515.816 263.733 519.916 253.823 515.226 251.603Z" fill="#1A1C53" stroke="black"/>
<path d="M515.226 236.603C502.886 236.963 518.266 250.793 515.226 236.603V236.603Z" fill="#802DAD" stroke="black"/>
<path d="M595.226 297.603C594.876 297.673 594.446 298.563 594.226 298.603C595.366 298.633 595.946 300.133 597.226 299.603C591.396 326.593 620.596 353.723 648.226 347.603C650.836 347.023 653.566 345.783 656.226 344.603C657.106 344.213 658.256 344.053 659.226 343.603C688.866 329.773 689.586 282.963 660.226 268.603C652.316 264.733 643.406 262.873 634.226 263.603C624.496 264.533 616.306 269.933 608.226 274.603C602.786 268.123 596.456 265.823 590.306 259.523C584.156 253.213 577.886 253.033 571.976 244.853C566.056 236.683 554.416 242.013 561.996 248.833C569.576 255.653 573.426 258.443 580.476 263.353C587.526 268.253 591.686 274.773 598.526 278.303C605.376 281.823 600.326 296.653 595.226 297.603ZM645.226 280.603C677.366 285.823 666.846 339.593 634.226 331.603C601.606 323.613 612.376 275.273 645.226 280.603Z" fill="#564BD4" stroke="black"/>
<path d="M697.226 248.603C697.666 244.653 695.876 241.383 692.226 239.603C699.576 246.493 693.426 258.033 683.226 254.603C677.846 248.243 681.266 237.583 691.226 239.603C690.016 238.373 689.066 238.573 687.226 238.603C678.276 240.223 680.316 245.493 680.886 251.923C681.456 258.353 674.486 258.423 670.146 263.523C665.796 268.623 665.526 273.233 672.976 269.353C680.436 265.483 678.786 261.903 684.486 257.863C690.186 253.813 694.906 256.593 697.226 248.603Z" fill="#4A183A" stroke="black"/>
<path d="M167.226 251.603C161.696 256.723 152.396 262.153 157.226 268.603C158.546 267.863 159.866 267.633 161.226 266.603C164.796 263.913 171.346 260.293 173.976 256.353C176.606 252.423 185.956 249.713 187.226 245.603C187.066 232.253 171.696 248.353 167.226 251.603Z" fill="#EA4E61" stroke="black"/>
<path d="M233.226 247.603C236.806 248.553 241.776 244.593 237.966 240.863C234.166 237.133 231.826 244.073 233.226 247.603Z" fill="#742238" stroke="black"/>
<path d="M692.226 239.603C692.226 239.603 691.716 239.653 691.226 239.603C681.266 237.583 677.846 248.243 683.226 254.603C693.426 258.033 699.576 246.493 692.226 239.603Z" fill="#781443" stroke="black"/>
<path d="M276.226 244.603C278.676 244.223 278.456 247.783 281.226 246.603C281.936 244.273 279.686 241.663 277.226 242.603C276.386 243.333 276.096 243.253 276.226 244.603Z" fill="#B04D58" stroke="black"/>
<path d="M289.226 248.603C286.206 246.893 282.376 251.003 285.556 253.273C288.726 255.533 292.156 250.263 289.226 248.603Z" fill="#7E4B54" stroke="black"/>
<path d="M139.226 275.603C140.316 276.613 142.346 278.533 143.226 279.603C144.056 275.513 156.086 273.863 154.226 267.603C155.056 268.013 156.096 268.573 156.226 269.603C156.476 269.353 156.956 268.753 157.226 268.603C152.396 262.153 161.696 256.723 167.226 251.603C157.366 258.783 149.296 268.653 139.226 275.603Z" fill="#B73264" stroke="black"/>
<path d="M509.226 261.603C509.226 265.673 509.826 270.603 509.236 274.593C508.646 278.583 514.246 280.473 516.226 277.603C514.226 277.603 512.226 277.603 510.226 277.603C510.226 269.273 510.226 260.933 510.226 252.603C511.896 252.603 513.556 252.603 515.226 252.603C515.226 252.603 515.356 251.633 515.226 251.603C513.226 251.603 511.226 251.603 509.226 251.603C509.226 254.933 509.226 258.273 509.226 261.603Z" fill="#501B85" stroke="black"/>
<path d="M516.226 277.603C518.106 274.883 515.406 267.953 516.226 264.603C517.046 261.253 516.326 255.693 515.226 252.603C513.556 252.603 511.896 252.603 510.226 252.603C510.226 260.933 510.226 269.273 510.226 277.603C512.226 277.603 514.226 277.603 516.226 277.603Z" fill="#7E24B6" stroke="black"/>
<path d="M237.226 260.603C237.226 260.603 237.156 260.093 237.226 259.603C237.786 255.853 235.406 251.843 233.226 255.603C231.056 259.353 235.236 262.293 237.226 260.603Z" fill="#903951" stroke="black"/>
<path d="M296.226 259.603C288.436 259.523 296.326 251.493 296.226 259.603V259.603Z" fill="#AF495E" stroke="black"/>
<path d="M455.226 259.603C452.346 257.053 447.356 259.693 448.226 263.603C451.056 264.103 454.816 262.313 455.226 259.603Z" fill="#412E7C" stroke="black"/>
<path d="M304.226 268.603C306.756 265.903 303.556 261.803 300.226 262.603C299.636 265.413 302.146 267.283 304.226 268.603Z" fill="#A5495E" stroke="black"/>
<path d="M120.226 344.603C123.556 343.703 127.076 342.103 130.226 340.603C134.136 338.233 140.176 333.313 143.226 329.603C147.516 324.383 149.026 316.213 150.226 309.603C157.506 309.593 163.656 313.673 171.226 312.603C171.126 303.483 157.626 307.683 151.226 306.603C150.996 299.643 148.726 293.243 147.226 286.603C147.226 286.603 147.306 286.093 147.226 285.603C146.216 284.023 144.326 280.943 143.226 279.603C142.346 278.533 140.316 276.613 139.226 275.603C116.986 255.043 79.9158 261.473 70.1558 291.533C60.3858 321.593 88.8458 353.113 120.226 344.603Z" fill="#D414E3" stroke="black"/>
<path d="M376.226 263.603C372.756 261.873 370.496 266.833 373.216 268.593C375.936 270.353 379.006 264.993 376.226 263.603Z" fill="#4B1B2F" stroke="black"/>
<path d="M237.226 266.603C231.336 265.193 231.396 278.023 237.226 276.603C237.226 273.273 237.226 269.933 237.226 266.603Z" fill="#7F2A4F" stroke="black"/>
<path d="M437.226 273.603C436.906 261.753 449.266 273.403 437.226 273.603V273.603Z" fill="#391E62" stroke="black"/>
<path d="M311.226 270.603C311.226 270.603 310.536 270.843 310.226 270.603C306.076 270.633 310.326 277.093 313.226 275.603C313.426 273.893 312.636 271.653 311.226 270.603Z" fill="#AA4A5C" stroke="black"/>
<path d="M369.226 285.603C371.496 285.063 373.786 284.573 376.226 284.603C375.256 283.693 379.826 270.703 374.306 271.683C368.786 272.673 372.716 282.743 369.226 285.603Z" fill="#962845" stroke="black"/>
<path d="M547.226 279.603C542.486 278.083 538.186 275.223 533.226 274.603C536.526 277.613 542.856 282.173 547.226 279.603Z" fill="#252D56" stroke="black"/>
<path d="M433.226 276.603C424.676 275.303 433.716 285.063 433.226 276.603V276.603Z" fill="#51194B" stroke="black"/>
<path d="M318.226 277.603C318.226 277.603 317.486 277.353 317.226 277.603C316.606 280.263 317.996 283.503 321.226 282.603C321.096 280.813 319.536 278.833 318.226 277.603Z" fill="#C95C6E" stroke="black"/>
<path d="M189.226 282.603C184.736 280.133 179.036 284.653 174.226 285.603C178.656 287.783 184.776 284.283 189.226 282.603Z" fill="#262E58" stroke="black"/>
<path d="M424.226 283.603C419.656 280.663 414.976 287.633 418.546 290.263C422.116 292.893 427.136 285.473 424.226 283.603Z" fill="#431945" stroke="black"/>
<path d="M569.226 290.603C565.016 287.273 559.236 285.633 554.226 283.603C557.096 287.453 564.166 289.283 569.226 290.603Z" fill="#383E70" stroke="black"/>
<path d="M369.226 285.603C349.396 290.293 332.766 306.063 333.226 327.603C333.686 349.143 350.706 365.543 371.226 367.603C391.746 369.663 413.806 354.543 415.226 333.603C415.516 329.293 414.836 324.903 415.226 320.603C414.736 317.073 413.426 313.933 412.226 310.603C409.646 303.443 405.626 300.003 400.226 294.603C395.786 291.303 390.126 288.153 385.226 286.603C382.266 285.933 379.286 284.633 376.226 284.603C373.786 284.573 371.496 285.063 369.226 285.603Z" fill="#F94956" stroke="black"/>
<path d="M237.226 291.603C227.906 291.063 239.306 280.423 237.226 291.603V291.603Z" fill="#942843" stroke="black"/>
<path d="M329.226 291.603C334.996 289.043 324.846 286.113 325.226 286.603C325.216 288.383 326.656 292.183 329.226 291.603Z" fill="#A94959" stroke="black"/>
<path d="M400.226 294.603C395.546 289.923 391.616 288.043 385.226 286.603C390.126 288.153 395.786 291.303 400.226 294.603Z" fill="#6D262F" stroke="black"/>
<path d="M515.226 291.603C508.766 290.723 509.976 300.053 510.226 304.603C510.476 309.153 507.636 319.643 515.226 317.603C515.226 308.933 515.226 300.273 515.226 291.603Z" fill="#8425B2" stroke="black"/>
<path d="M594.226 298.603C594.446 298.563 594.876 297.673 595.226 297.603C589.536 293.423 581.196 293.873 575.226 293.603C580.576 294.443 588.236 299.783 594.226 298.603Z" fill="#353C75" stroke="black"/>
<path d="M337.226 293.603C336.616 293.443 334.836 293.443 334.226 293.603C332.186 296.013 335.386 300.233 338.226 299.603C337.826 298.083 339.016 294.613 337.226 293.603Z" fill="#80363E" stroke="black"/>
<path d="M408.226 299.603C408.226 299.603 408.906 299.843 409.226 299.603C410.866 297.863 413.186 296.463 413.226 293.603C409.936 293.133 405.276 296.143 408.226 299.603Z" fill="#5F2151" stroke="black"/>
<path d="M233.226 312.603C234.766 312.423 236.686 312.453 238.226 312.603C237.156 309.453 239.656 304.583 238.226 301.603C234.336 295.773 231.056 310.323 233.226 312.603Z" fill="#691F46" stroke="black"/>
<path d="M586.226 306.603C582.686 306.253 576.496 306.653 577.226 311.603C580.916 311.833 587.676 312.173 586.226 306.603Z" fill="#4836AD" stroke="black"/>
<path d="M188.226 308.603C183.196 305.963 175.366 309.953 181.006 313.823C186.636 317.703 193.416 311.333 188.226 308.603Z" fill="#B528BE" stroke="black"/>
<path d="M559.226 311.603C560.346 313.713 570.326 313.283 568.966 309.863C567.616 306.443 559.976 309.063 559.226 311.603Z" fill="#673EB4" stroke="black"/>
<path d="M551.226 310.603C548.156 309.103 545.356 310.123 542.226 310.603C540.946 316.673 551.346 315.323 551.226 310.603Z" fill="#6033B7" stroke="black"/>
<path d="M215.226 310.603C214.726 310.623 213.726 310.603 213.226 310.603C207.556 310.603 201.896 310.603 196.226 310.603C193.966 321.783 230.986 315.823 215.226 310.603Z" fill="#B91AC1" stroke="black"/>
<path d="M534.226 310.603C530.486 308.163 521.916 312.313 526.006 315.823C530.096 319.333 538.246 313.223 534.226 310.603Z" fill="#48258A" stroke="black"/>
<path d="M234.226 319.603C237.786 319.783 241.336 319.773 244.226 317.603C243.056 313.883 241.856 312.953 238.226 312.603C236.686 312.453 234.766 312.423 233.226 312.603C228.766 311.303 228.876 315.453 229.226 318.603C230.966 317.703 233.156 319.443 234.226 319.603Z" fill="#AE2690" stroke="black"/>
<path d="M260.226 314.603C255.106 312.103 247.486 315.773 253.006 319.823C258.526 323.873 265.266 317.063 260.226 314.603Z" fill="#AF23A7" stroke="black"/>
<path d="M506.226 316.603C503.146 313.863 497.656 313.993 494.226 316.603C496.686 320.703 502.866 318.053 506.226 316.603Z" fill="#4F2994" stroke="black"/>
<path d="M280.226 321.603C282.026 316.903 273.546 312.183 270.006 316.383C266.466 320.573 276.676 323.153 280.226 321.603Z" fill="#AE20B2" stroke="black"/>
<path d="M487.226 315.603C484.036 314.463 473.826 315.723 477.156 319.673C480.476 323.633 488.126 319.823 487.226 315.603Z" fill="#532D9B" stroke="black"/>
<path d="M295.226 322.603C296.796 318.423 290.186 315.373 287.496 318.853C284.796 322.333 292.566 323.443 295.226 322.603Z" fill="#AC1FB8" stroke="black"/>
<path d="M442.226 323.603C444.666 323.983 444.456 320.433 447.226 321.603C447.726 320.063 445.046 318.733 444.226 318.603C441.796 318.503 438.096 319.643 438.226 322.603C439.696 322.723 440.836 323.283 442.226 323.603Z" fill="#7530A7" stroke="black"/>
<path d="M465.226 319.603C463.966 317.893 459.556 318.133 458.226 319.603C459.486 321.313 463.896 321.073 465.226 319.603Z" fill="#7F37B6" stroke="black"/>
<path d="M310.226 319.603C307.116 317.603 301.306 320.643 305.006 323.823C308.706 327.003 313.606 321.763 310.226 319.603Z" fill="#8E2E99" stroke="black"/>
<path d="M429.226 319.603C424.986 317.673 418.896 321.533 423.556 324.273C428.216 327.013 433.926 321.753 429.226 319.603Z" fill="#641F7F" stroke="black"/>
<path d="M330.226 324.603C331.856 320.733 323.156 317.923 321.566 321.923C319.976 325.923 327.666 325.283 330.226 324.603Z" fill="#8B1D71" stroke="black"/>
<path d="M236.226 327.603C233.536 328.323 234.306 331.523 234.226 333.603C237.556 334.003 238.006 329.513 236.226 327.603Z" fill="#9E2F47" stroke="black"/>
<path d="M510.226 331.603C510.226 333.653 509.126 339.983 510.226 341.603C511.896 341.603 513.556 341.603 515.226 341.603C515.226 337.273 515.226 332.933 515.226 328.603C512.136 327.733 511.326 329.713 510.226 331.603Z" fill="#7C29A7" stroke="black"/>
<path d="M152.226 336.603C147.926 340.323 160.356 355.263 164.916 352.293C169.486 349.333 155.866 337.593 152.226 336.603Z" fill="#CB25D8" stroke="black"/>
<path d="M608.226 342.603C603.956 340.583 598.516 345.093 601.326 348.483C604.136 351.883 608.436 345.113 608.226 342.603Z" fill="#273281" stroke="black"/>
<path d="M593.226 405.603C593.806 405.603 595.746 405.903 596.226 405.603C596.526 405.413 599.066 400.943 599.226 400.603C603.646 381.033 617.026 362.663 617.226 342.603C606.486 361.733 598.196 383.883 593.226 405.603Z" fill="#144272" stroke="black"/>
<path d="M168.226 463.603C169.136 467.173 171.136 468.993 168.226 472.603C171.906 469.923 177.236 466.233 181.226 464.603C175.776 466.213 171.526 470.653 169.906 462.923C168.286 455.193 167.496 453.503 165.226 446.603C162.746 438.633 159.356 430.933 158.226 422.603C169.446 413.943 152.296 409.843 150.546 400.283C148.796 390.723 144.366 380.573 141.546 371.283C138.726 361.993 136.386 352.063 132.226 343.603C131.056 349.943 135.706 357.683 137.296 364.533C138.896 371.383 142.636 377.693 144.246 384.583C145.866 391.463 149.496 398.033 150.896 404.933C152.296 411.833 147.616 418.683 154.476 423.353C161.326 428.033 159.176 436.333 162.296 442.533C165.426 448.733 167.236 456.823 168.226 463.603Z" fill="#2D317C" stroke="black"/>
<path d="M233.226 344.603C232.916 345.523 232.916 348.683 233.226 349.603C237.286 352.533 237.736 346.393 237.226 343.603C236.226 343.743 233.806 343.403 233.226 344.603Z" fill="#922647" stroke="black"/>
<path d="M648.226 347.603C655.866 348.843 658.896 360.553 663.476 366.353C668.046 372.153 669.676 388.553 667.216 395.593C664.756 402.643 658.456 413.693 668.556 417.273C678.656 420.853 686.736 405.563 696.146 413.683C705.556 421.813 712.356 419.233 713.226 407.603C714.096 395.973 696.116 396.623 695.226 406.603C690.556 406.603 685.896 406.603 681.226 406.603C683.016 400.223 674.236 400.893 673.226 396.603C672.216 392.313 673.226 384.233 673.226 379.603C673.226 374.983 671.906 368.963 668.976 365.853C666.056 362.743 662.306 358.623 661.476 355.353C660.656 352.073 653.686 346.763 656.226 344.603C653.566 345.783 650.836 347.023 648.226 347.603Z" fill="#2C3293" stroke="black"/>
<path d="M356.226 475.603C341.046 484.243 329.196 494.913 324.226 512.603C323.746 514.313 323.416 515.753 323.226 517.603C322.616 523.643 323.006 530.823 324.226 536.603C329.666 550.803 335.656 563.713 350.226 570.603C353.116 571.973 356.566 573.193 359.226 574.603C359.226 574.603 359.726 574.593 360.226 574.603C367.896 574.783 376.226 576.723 384.226 575.603C395.976 572.463 406.916 566.133 415.226 556.603C434.926 533.993 426.406 497.533 402.226 481.603C399.376 479.723 395.166 476.653 392.226 475.603C388.216 474.813 384.286 473.883 380.226 473.603C376.056 473.323 371.396 473.273 367.226 473.603C363.886 473.873 359.376 474.583 356.226 475.603ZM405.226 506.603C416.216 525.703 406.636 553.053 384.226 558.603C375.656 560.723 366.176 559.893 358.226 556.603C357.506 556.303 356.936 555.913 356.226 555.603C350.386 553.073 344.596 547.753 342.226 541.603C341.886 540.703 341.546 539.573 341.226 538.603C338.546 530.563 338.776 522.143 341.226 514.603C343.556 507.413 345.296 503.873 351.226 498.603C354.726 495.493 358.036 493.373 362.226 491.603C364.616 490.593 366.226 489.803 369.226 489.603C382.946 487.143 397.856 493.783 405.226 506.603Z" fill="#F24F57" stroke="black"/>
<path d="M108.226 355.603C108.686 353.393 107.046 345.933 104.006 348.383C100.966 350.833 104.766 356.843 108.226 355.603Z" fill="#631465" stroke="black"/>
<path d="M328.226 356.603C330.796 357.423 338.376 354.713 335.446 351.383C332.526 348.053 325.716 352.203 328.226 356.603Z" fill="#240D2C" stroke="black"/>
<path d="M510.226 363.603C517.426 366.303 518.716 349.283 510.226 352.603C510.226 356.273 510.226 359.933 510.226 363.603Z" fill="#6B30A6" stroke="black"/>
<path d="M592.226 354.603C588.416 352.333 581.656 360.953 585.546 363.263C589.436 365.583 595.666 356.653 592.226 354.603Z" fill="#313594" stroke="black"/>
<path d="M181.226 363.603C181.986 359.873 171.946 354.323 171.256 358.573C170.556 362.833 178.966 366.583 181.226 363.603Z" fill="#B237B8" stroke="black"/>
<path d="M103.226 358.603C101.036 362.703 105.056 370.903 109.446 366.823C113.846 362.743 107.456 356.213 103.226 358.603Z" fill="#B723C4" stroke="black"/>
<path d="M420.226 358.603C415.876 358.443 416.386 365.043 421.196 365.573C426.006 366.103 422.606 358.693 420.226 358.603Z" fill="#501F3B" stroke="black"/>
<path d="M644.226 365.603C645.276 361.283 643.246 357.033 638.226 358.603C637.266 363.353 638.726 367.273 644.226 365.603Z" fill="#364EB0" stroke="black"/>
<path d="M237.226 366.603C227.376 365.273 239.836 354.013 237.226 366.603V366.603Z" fill="#80203D" stroke="black"/>
<path d="M322.226 360.603C320.446 358.823 315.346 362.203 318.006 364.823C320.656 367.443 324.036 362.413 322.226 360.603Z" fill="#521931" stroke="black"/>
<path d="M180.226 368.603C182.196 370.013 185.746 371.433 187.226 372.603C189.086 370.173 183.266 365.223 180.226 365.603C180.336 366.593 180.096 367.623 180.226 368.603Z" fill="#4B2772" stroke="black"/>
<path d="M291.226 379.603C286.396 383.303 277.406 389.673 279.226 395.603C286.956 394.373 291.556 387.103 298.226 383.603C303.516 379.933 320.696 372.603 310.226 365.603C303.196 369.033 297.826 375.603 291.226 379.603Z" fill="#671A4A" stroke="black"/>
<path d="M432.226 368.603C426.876 368.133 426.676 375.613 432.216 376.593C437.756 377.573 436.696 368.993 432.226 368.603Z" fill="#52193B" stroke="black"/>
<path d="M569.226 376.603C572.816 378.543 579.646 372.713 576.976 369.873C574.306 367.023 568.666 373.683 569.226 376.603Z" fill="#3D42A7" stroke="black"/>
<path d="M376.226 370.603C368.656 371.143 377.596 379.863 376.226 370.603V370.603Z" fill="#660930" stroke="black"/>
<path d="M198.226 380.603C198.226 380.603 198.266 380.103 198.226 379.603C197.986 376.343 193.746 369.513 190.566 373.923C187.376 378.333 195.966 380.723 198.226 380.603Z" fill="#8E32A4" stroke="black"/>
<path d="M515.226 378.603C504.066 378.003 516.886 366.883 515.226 378.603V378.603Z" fill="#77379A" stroke="black"/>
<path d="M236.226 374.603C233.856 373.533 231.256 379.223 234.216 380.593C237.176 381.953 238.816 375.783 236.226 374.603Z" fill="#A8216C" stroke="black"/>
<path d="M644.226 374.603C635.596 371.983 637.216 379.863 637.226 385.603C637.236 391.343 635.626 399.283 644.226 396.603C644.226 389.273 644.226 381.933 644.226 374.603Z" fill="#384BB1" stroke="black"/>
<path d="M110.226 411.603C109.116 399.883 111.706 395.003 110.226 382.603C108.746 370.203 98.6659 382.963 102.226 391.603C105.786 400.253 95.9759 413.583 110.226 411.603Z" fill="#C215CE" stroke="black"/>
<path d="M445.226 384.603C446.356 380.743 442.626 378.243 439.226 378.603C438.236 382.283 441.536 385.613 445.226 384.603Z" fill="#631F42" stroke="black"/>
<path d="M376.226 380.603C372.496 378.533 370.226 386.573 373.546 388.263C376.866 389.953 378.976 382.123 376.226 380.603Z" fill="#771D40" stroke="black"/>
<path d="M562.226 382.603C558.106 380.183 553.076 388.103 556.546 390.263C560.016 392.423 565.206 384.353 562.226 382.603Z" fill="#2F4996" stroke="black"/>
<path d="M212.226 393.603C213.046 391.133 207.596 384.263 205.016 387.373C202.436 390.483 209.276 394.533 212.226 393.603Z" fill="#A026AF" stroke="black"/>
<path d="M456.226 395.603C457.426 391.503 454.296 388.083 450.226 388.603C449.836 391.873 453.306 395.033 456.226 395.603Z" fill="#782A4E" stroke="black"/>
<path d="M509.226 396.603C511.226 396.603 513.226 396.603 515.226 396.603C516.286 393.593 514.816 386.693 510.226 389.603C509.586 391.703 509.566 393.983 509.226 396.603Z" fill="#4F3085" stroke="black"/>
<path d="M221.226 391.603C213.116 394.483 212.656 403.413 221.226 407.603C217.336 403.943 212.206 396.233 219.976 393.353C227.756 390.483 237.026 393.943 245.226 392.603C245.506 395.553 249.426 395.513 249.226 398.603C243.396 398.343 237.776 398.693 232.226 399.603C233.366 404.743 222.876 406.023 229.226 411.603C226.366 411.473 225.046 408.093 222.226 407.603C224.216 412.043 229.796 412.623 232.446 416.383C235.096 420.133 230.096 430.813 239.226 427.603C238.576 437.123 236.226 444.783 236.226 454.603C236.276 454.833 237.006 455.303 237.226 455.603C238.816 457.763 239.086 466.133 239.226 468.603C239.556 460.493 240.696 454.853 242.226 447.603C242.476 442.663 244.306 436.693 243.226 431.603C242.146 426.513 247.766 423.483 244.226 419.603C236.716 423.803 236.406 418.773 237.246 410.623C238.096 402.483 239.836 399.793 248.196 399.573C256.566 399.363 244.526 389.813 240.226 391.603C235.936 393.383 226.526 390.483 221.226 391.603ZM232.226 405.603C235.136 416.913 222.726 406.103 232.226 405.603Z" fill="#9B18AA" stroke="black"/>
<path d="M221.226 407.603C221.226 407.603 221.786 407.443 222.226 407.603C225.046 408.093 226.366 411.473 229.226 411.603C222.876 406.023 233.366 404.743 232.226 399.603C237.776 398.693 243.396 398.343 249.226 398.603C249.426 395.513 245.506 395.553 245.226 392.603C237.026 393.943 227.756 390.483 219.976 393.353C212.206 396.233 217.336 403.943 221.226 407.603Z" fill="#C80BD5" stroke="black"/>
<path d="M259.226 402.603C264.426 404.863 262.886 415.333 270.146 411.523C277.406 407.713 276.196 401.793 271.976 397.853C267.746 393.923 259.406 396.453 259.226 402.603Z" fill="#7517AF" stroke="black"/>
<path d="M376.226 396.603C371.436 395.273 370.646 403.443 374.196 404.573C377.756 405.703 379.366 397.473 376.226 396.603Z" fill="#621835" stroke="black"/>
<path d="M465.226 396.603C460.736 395.533 459.526 402.053 464.216 403.593C468.916 405.133 468.586 397.403 465.226 396.603Z" fill="#561A3F" stroke="black"/>
<path d="M478.226 415.603C477.606 418.203 476.216 420.133 475.226 422.603C473.986 425.703 473.096 429.353 472.226 432.603C471.476 437.963 472.046 444.543 473.226 449.603C473.516 450.833 474.886 452.113 474.226 453.603C476.206 458.473 482.056 465.973 486.226 469.603C513.846 490.143 558.566 470.003 553.226 432.603C552.656 428.633 550.356 423.463 548.226 419.603C543.906 411.773 536.776 404.933 529.226 400.603C528.726 400.563 527.686 400.733 527.226 400.603C524.156 399.753 520.006 399.053 517.226 397.603C514.276 397.873 511.186 397.603 508.226 397.603C507.726 397.603 506.726 397.603 506.226 397.603C501.226 399.343 495.056 401.803 490.306 404.683C485.566 407.563 483.306 413.483 478.226 415.603Z" fill="#F09B5B" stroke="black"/>
<path d="M546.226 398.603C544.746 397.123 538.876 400.183 541.006 402.823C543.136 405.463 549.276 401.653 546.226 398.603Z" fill="#4454A0" stroke="black"/>
<path d="M585.226 423.603C586.646 422.403 588.476 422.633 590.226 422.603C591.216 422.583 592.236 422.653 593.226 422.603C596.486 417.843 601.626 419.853 605.446 415.823C609.266 411.793 602.336 405.193 598.226 410.603C598.416 409.253 597.656 406.223 596.226 405.603C595.746 405.903 593.806 405.603 593.226 405.603C578.586 405.543 585.456 415.503 585.226 423.603Z" fill="#2A4199" stroke="black"/>
<path d="M472.226 411.603C472.226 411.603 472.976 411.353 473.226 411.603C475.146 413.383 476.896 413.673 479.226 412.603C478.726 409.673 475.446 406.253 472.226 406.603C472.586 408.153 471.756 410.083 472.226 411.603Z" fill="#702549" stroke="black"/>
<path d="M643.226 408.603C636.876 404.363 635.126 420.273 637.226 424.603C639.326 428.933 632.996 441.703 638.556 445.273C644.116 448.843 646.196 433.853 644.226 429.603C642.256 425.353 647.566 411.493 643.226 408.603Z" fill="#2871CB" stroke="black"/>
<path d="M376.226 411.603C372.316 409.433 370.336 417.953 373.526 419.243C376.716 420.533 378.976 413.123 376.226 411.603Z" fill="#7F1E3F" stroke="black"/>
<path d="M32.2258 429.603C33.0058 427.193 33.0058 427.013 32.2258 424.603C29.2858 415.533 17.1258 418.573 17.2358 427.593C17.3458 436.613 29.5058 437.983 32.2258 429.603Z" fill="#CC10CE" stroke="black"/>
<path d="M103.226 459.603C103.896 459.953 107.496 459.863 108.226 459.603C110.526 447.793 108.586 434.853 109.226 422.603C107.726 423.023 105.676 422.043 104.226 422.603C101.206 424.643 101.496 436.593 102.226 440.603C102.956 444.613 99.6858 457.723 103.226 459.603Z" fill="#C713D3" stroke="black"/>
<path d="M585.226 423.603C581.836 433.573 578.026 444.043 574.486 453.863C570.946 463.673 566.516 472.983 563.546 482.923C560.586 492.863 555.866 502.553 553.006 512.383C550.146 522.203 544.486 531.793 542.156 541.533C539.816 551.263 530.886 562.463 535.226 570.603C537.386 564.273 540.336 558.143 542.446 551.823C544.566 545.503 546.716 539.793 549.306 533.683C551.886 527.563 554.176 521.013 556.446 514.823C558.716 508.633 560.856 502.463 562.916 496.293C564.986 490.133 568.356 484.703 570.236 478.613C572.106 472.523 574.276 464.853 576.906 459.283C579.526 453.713 580.286 445.773 583.906 441.283C587.526 436.783 584.986 425.053 590.226 422.603C588.476 422.633 586.646 422.403 585.226 423.603Z" fill="#16507F" stroke="black"/>
<path d="M32.2258 429.603C38.8358 426.343 49.3558 430.013 57.2258 428.603C65.0958 427.193 76.6758 431.963 81.2258 425.603C73.6158 424.533 63.5958 427.033 56.2258 425.603C48.8558 424.173 38.4058 428.803 32.2258 424.603C33.0058 427.013 33.0058 427.193 32.2258 429.603Z" fill="#7B1166" stroke="black"/>
<path d="M375.226 427.603C372.366 426.303 370.596 433.093 373.526 434.243C376.456 435.393 377.486 428.633 375.226 427.603Z" fill="#78173A" stroke="black"/>
<path d="M227.226 432.603C224.616 431.223 217.596 434.783 220.006 437.823C222.416 440.863 228.376 435.723 227.226 432.603Z" fill="#4E238F" stroke="black"/>
<path d="M473.226 449.603C472.046 444.543 471.476 437.963 472.226 432.603C470.716 438.273 470.906 444.233 473.226 449.603Z" fill="#42200D" stroke="black"/>
<path d="M269.226 443.603C267.756 439.153 262.906 435.123 258.226 434.603C258.706 439.303 264.116 444.613 269.226 443.603Z" fill="#44278E" stroke="black"/>
<path d="M211.226 444.603C208.176 445.443 203.576 446.813 203.226 450.603C206.896 451.003 210.306 448.033 211.226 444.603Z" fill="#532CA1" stroke="black"/>
<path d="M375.226 448.603C372.526 447.463 370.766 453.063 373.526 454.243C376.286 455.423 377.406 449.523 375.226 448.603Z" fill="#851C40" stroke="black"/>
<path d="M282.226 454.603C281.926 450.903 277.696 448.743 274.226 449.603C274.526 453.303 278.756 455.463 282.226 454.603Z" fill="#413788" stroke="black"/>
<path d="M711.226 449.603C703.626 448.113 701.626 455.693 694.226 455.603C686.826 455.513 681.046 455.113 674.236 452.613C667.426 450.113 667.936 466.983 675.206 463.583C682.466 460.173 686.966 459.963 695.216 460.613C703.476 461.253 702.426 468.123 696.976 471.353C691.526 474.593 690.596 477.893 685.976 482.353C681.366 486.823 678.216 487.473 673.476 492.853C668.736 498.233 677.246 498.263 680.476 492.853C683.716 487.453 688.916 487.393 692.476 482.853C696.036 478.303 701.276 476.543 704.996 472.373C708.716 468.203 716.606 468.383 718.296 462.673C719.996 456.963 716.946 450.723 711.226 449.603Z" fill="#691940" stroke="black"/>
<path d="M643.226 452.603C639.126 449.953 634.496 458.053 639.006 460.823C643.516 463.593 646.626 454.803 643.226 452.603Z" fill="#225EA8" stroke="black"/>
<path d="M197.226 454.603C195.336 457.323 190.396 456.953 190.226 460.603C194.096 461.633 196.956 457.983 197.226 454.603Z" fill="#3F35A3" stroke="black"/>
<path d="M238.226 473.603C235.796 468.543 238.066 461.413 237.226 455.603C237.006 455.303 236.276 454.833 236.226 454.603C236.226 457.373 236.496 475.493 238.226 473.603Z" fill="#7F1466" stroke="black"/>
<path d="M467.226 461.603C472.826 461.593 475.816 459.473 473.226 454.603C469.936 455.103 463.706 457.203 467.226 461.603Z" fill="#EAA651" stroke="black"/>
<path d="M238.226 473.603C239.586 472.113 239.146 470.713 239.226 468.603C239.086 466.133 238.816 457.763 237.226 455.603C238.066 461.413 235.796 468.543 238.226 473.603Z" fill="#B62B8C" stroke="black"/>
<path d="M296.226 467.603C283.946 467.113 294.656 456.113 296.226 467.603V467.603Z" fill="#2D2E82" stroke="black"/>
<path d="M375.226 462.603C373.026 461.763 370.466 466.183 373.216 467.593C375.966 469.003 377.756 463.563 375.226 462.603Z" fill="#7C2047" stroke="black"/>
<path d="M181.226 464.603C177.236 466.233 171.906 469.923 168.226 472.603C156.706 479.643 147.156 490.343 135.226 496.603C133.396 494.043 130.926 491.363 128.226 489.603C131.746 492.303 136.966 498.063 139.226 501.603C140.266 496.213 148.006 492.383 152.226 490.603C163.366 481.713 176.026 473.703 185.226 463.603C183.646 463.083 182.536 464.213 181.226 464.603Z" fill="#4734A0" stroke="black"/>
<path d="M56.2258 465.603C50.5958 470.303 51.3558 478.073 58.2258 480.603C62.1058 481.393 65.5858 480.293 68.2258 477.603C68.4758 477.353 69.1058 476.863 69.2258 476.603C69.2258 476.603 69.1758 476.093 69.2258 475.603C69.8958 469.413 65.1158 462.963 58.2258 464.603C57.5658 464.763 56.7458 465.173 56.2258 465.603Z" fill="#D218D7" stroke="black"/>
<path d="M455.226 471.603C455.726 471.623 456.726 471.643 457.226 471.603C460.326 470.343 462.706 465.163 458.256 464.633C453.796 464.093 451.246 470.073 455.226 471.603Z" fill="#DC9E65" stroke="black"/>
<path d="M108.226 468.603C104.686 466.313 99.1559 473.393 103.556 476.273C107.956 479.153 112.126 471.123 108.226 468.603Z" fill="#6127A6" stroke="black"/>
<path d="M642.226 469.603C636.996 467.863 636.966 477.513 640.476 478.193C643.986 478.863 645.716 470.763 642.226 469.603Z" fill="#286FB2" stroke="black"/>
<path d="M308.226 478.603C311.006 476.293 306.236 469.073 302.486 471.863C298.726 474.643 305.206 478.973 308.226 478.603Z" fill="#2A2D7B" stroke="black"/>
<path d="M356.226 475.603C359.376 474.583 363.886 473.873 367.226 473.603C367.356 473.563 367.226 472.603 367.226 472.603C362.526 472.783 359.976 473.473 356.226 475.603Z" fill="#390D1C" stroke="black"/>
<path d="M367.226 473.603C371.396 473.273 376.056 473.323 380.226 473.603C376.446 472.923 371.736 472.433 367.226 472.603C367.226 472.603 367.356 473.563 367.226 473.603Z" fill="#8C2F42" stroke="black"/>
<path d="M447.226 473.603C443.196 471.293 435.206 479.353 438.546 482.263C441.896 485.183 450.036 475.213 447.226 473.603Z" fill="#E29564" stroke="black"/>
<path d="M174.226 478.603C175.726 484.723 179.256 492.373 180.446 498.383C181.646 504.383 188.506 515.153 178.226 513.603C176.696 520.633 185.096 518.263 189.226 518.603C185.656 515.373 191.386 502.083 184.226 506.603C186.466 496.673 172.416 485.083 175.226 475.603C174.456 476.783 174.156 476.823 174.226 478.603Z" fill="#29306E" stroke="black"/>
<path d="M58.2258 480.603C63.4758 482.543 77.9358 486.573 77.2258 495.603C79.2258 492.783 81.2958 491.233 84.2258 489.603C81.1258 490.453 69.6358 481.833 68.2258 477.603C65.5858 480.293 62.1058 481.393 58.2258 480.603Z" fill="#61167E" stroke="black"/>
<path d="M319.226 486.603C319.846 483.763 317.056 480.983 314.226 481.603C313.286 484.963 315.826 487.623 319.226 486.603Z" fill="#292D73" stroke="black"/>
<path d="M514.226 481.603C510.256 480.283 506.456 489.813 511.556 492.273C516.656 494.723 518.646 483.073 514.226 481.603Z" fill="#C68D57" stroke="black"/>
<path d="M100.226 483.603C100.226 483.603 99.7057 483.513 99.2257 483.603C93.6357 484.653 89.1857 486.843 84.2257 489.603C81.2957 491.233 79.2257 492.783 77.2257 495.603C70.1957 505.543 65.2757 519.263 69.2257 531.603C75.1957 544.233 84.0157 554.763 98.2257 557.603C112.096 560.373 126.026 555.293 135.226 544.603C136.886 545.143 137.556 547.163 139.226 547.603C134.846 542.523 139.456 540.603 141.226 536.603C145.916 525.993 143.156 512.633 139.226 502.603C139.226 502.603 139.136 502.083 139.226 501.603C136.966 498.063 131.746 492.303 128.226 489.603C121.596 485.283 108.306 478.973 100.226 483.603Z" fill="#9E30EA" stroke="black"/>
<path d="M617.226 551.603C629.456 560.093 646.416 562.063 659.146 554.523C671.886 546.993 679.466 535.393 679.226 520.603C678.986 505.813 671.636 493.143 657.916 486.913C644.206 480.683 627.696 482.523 615.976 492.353C604.256 502.183 603.146 518.533 601.226 531.603C607.336 533.043 612.846 545.813 604.976 549.353C597.096 552.883 593.726 560.563 586.476 563.853C579.216 567.143 574.946 576.743 567.976 579.353C560.996 581.953 552.256 595.443 561.196 595.573C570.136 595.703 573.756 584.473 580.976 581.353C588.206 578.233 592.706 570.613 599.476 566.853C606.256 563.103 611.416 556.473 617.226 551.603Z" fill="#1299ED" stroke="black"/>
<path d="M424.226 494.603C426.896 494.863 427.356 491.843 430.446 489.823C433.536 487.803 427.756 485.173 427.226 484.603C424.906 486.243 416.076 493.803 424.226 494.603Z" fill="#DD9765" stroke="black"/>
<path d="M235.226 515.603C236.536 516.833 238.106 518.813 238.226 520.603C236.196 522.313 233.266 520.913 231.226 522.603C231.216 529.183 231.796 539.383 231.226 545.603C230.656 551.823 234.186 561.523 228.226 564.603C225.396 566.063 221.066 566.223 218.226 567.603C228.216 564.993 234.196 564.713 232.226 552.603C230.256 540.493 233.696 534.183 232.226 522.603C243.366 520.123 238.216 533.423 239.226 540.603C240.236 547.783 237.636 558.083 240.226 564.603C240.226 563.603 240.226 562.603 240.226 561.603C240.006 552.983 240.516 543.093 240.226 534.603C239.936 526.113 239.756 516.713 239.226 508.603C238.696 500.493 242.546 487.783 235.226 485.603C234.556 495.543 236.126 505.683 235.226 515.603Z" fill="#942551" stroke="black"/>
<path d="M351.226 498.603C353.176 497.343 360.816 492.583 362.226 491.603C358.036 493.373 354.726 495.493 351.226 498.603Z" fill="#2E0618" stroke="black"/>
<path d="M514.226 496.603C514.026 496.843 512.676 496.453 512.226 496.603C508.936 497.673 508.006 504.713 512.196 505.573C516.396 506.433 517.786 498.353 514.226 496.603Z" fill="#D2984E" stroke="black"/>
<path d="M514.226 511.603C509.406 509.883 507.196 518.463 511.546 520.263C515.896 522.063 517.786 512.873 514.226 511.603Z" fill="#DDA14B" stroke="black"/>
<path d="M147.226 512.603C145.566 516.353 151.436 520.363 154.446 516.823C157.456 513.293 150.106 511.283 147.226 512.603Z" fill="#4442B8" stroke="black"/>
<path d="M171.226 518.603C173.246 513.763 166.976 509.903 163.486 513.853C159.996 517.813 168.106 519.773 171.226 518.603Z" fill="#423EA6" stroke="black"/>
<path d="M202.226 513.603C197.206 512.093 192.596 517.543 198.226 519.603C203.856 521.663 207.966 515.333 202.226 513.603Z" fill="#393E86" stroke="black"/>
<path d="M222.226 519.603C224.176 512.923 211.366 512.683 213.226 519.603C216.226 519.603 219.226 519.603 222.226 519.603Z" fill="#3E45A0" stroke="black"/>
<path d="M234.226 516.603C234.116 518.983 232.956 520.053 231.226 521.603C231.226 521.603 231.226 522.103 231.226 522.603C233.266 520.913 236.196 522.313 238.226 520.603C238.106 518.813 236.536 516.833 235.226 515.603C235.226 515.603 234.476 515.353 234.226 515.603C234.226 515.603 234.246 516.103 234.226 516.603Z" fill="#6B2D6A" stroke="black"/>
<path d="M231.226 521.603C232.956 520.053 234.116 518.983 234.226 516.603C232.556 516.603 230.896 516.603 229.226 516.603C228.996 518.863 229.166 520.513 231.226 521.603Z" fill="#332574" stroke="black"/>
<path d="M255.226 520.603C255.806 514.463 244.126 515.133 242.226 519.603C246.106 521.643 250.926 520.153 255.226 520.603Z" fill="#3C39AD" stroke="black"/>
<path d="M271.226 521.603C273.096 517.243 265.126 513.543 262.006 517.383C258.886 521.213 268.156 522.953 271.226 521.603Z" fill="#3339A1" stroke="black"/>
<path d="M286.226 516.603C281.996 514.603 275.826 518.983 280.556 522.273C285.286 525.563 291.426 519.053 286.226 516.603Z" fill="#373CA0" stroke="black"/>
<path d="M303.226 518.603C300.896 517.763 293.626 518.763 296.006 521.823C298.386 524.883 304.486 522.033 303.226 518.603Z" fill="#474CB3" stroke="black"/>
<path d="M315.226 518.603C312.056 516.663 307.176 520.613 310.556 523.273C313.936 525.933 318.506 520.613 315.226 518.603Z" fill="#4B43B6" stroke="black"/>
<path d="M218.226 567.603C217.516 567.793 215.836 568.303 215.226 568.603C214.366 569.033 213.376 570.113 212.226 570.603C205.156 575.863 199.306 581.953 195.226 589.603C193.836 593.143 191.886 596.973 191.226 600.603C191.426 601.483 191.226 602.703 191.226 603.603C191.226 611.053 191.796 617.583 193.226 624.603C207.226 655.793 244.776 666.753 269.976 640.353C295.176 613.963 277.736 579.693 249.226 565.603C247.226 564.933 241.576 565.633 240.226 564.603C237.636 558.083 240.236 547.783 239.226 540.603C238.216 533.423 243.366 520.123 232.226 522.603C233.696 534.183 230.256 540.493 232.226 552.603C234.196 564.713 228.216 564.993 218.226 567.603Z" fill="#EC2575" stroke="black"/>
<path d="M429.226 528.603C429.416 516.513 443.126 531.033 429.226 528.603V528.603Z" fill="#8A293A" stroke="black"/>
<path d="M448.226 523.603C444.486 521.263 439.936 526.043 443.226 528.603C446.516 531.163 451.616 525.723 448.226 523.603Z" fill="#892E3A" stroke="black"/>
<path d="M462.226 523.603C458.496 521.123 452.596 526.073 456.556 529.273C460.516 532.473 466.106 526.183 462.226 523.603Z" fill="#6E2439" stroke="black"/>
<path d="M470.226 525.603C470.106 526.073 470.136 527.123 470.226 527.603C476.856 535.923 476.906 517.223 470.226 525.603Z" fill="#952C43" stroke="black"/>
<path d="M490.226 528.603C478.656 531.233 489.366 518.803 490.226 528.603V528.603Z" fill="#8D3246" stroke="black"/>
<path d="M504.226 524.603C500.386 522.093 493.856 526.103 498.006 529.823C502.156 533.543 507.536 526.763 504.226 524.603Z" fill="#7C343E" stroke="black"/>
<path d="M539.226 525.603C527.156 522.703 536.206 535.273 539.226 525.603V525.603Z" fill="#71394A" stroke="black"/>
<path d="M565.226 525.603C562.226 523.683 555.356 527.253 558.556 530.273C561.756 533.293 569.376 528.263 565.226 525.603Z" fill="#303C87" stroke="black"/>
<path d="M580.226 525.603C577.386 523.863 571.416 527.513 574.556 530.273C577.696 533.033 584.106 527.983 580.226 525.603Z" fill="#384699" stroke="black"/>
<path d="M594.226 526.603C592.796 525.173 586.686 527.103 589.006 529.823C591.316 532.543 596.646 529.023 594.226 526.603Z" fill="#3B4AAC" stroke="black"/>
<path d="M204.226 573.603C204.436 573.333 204.956 572.783 205.226 572.603C202.816 557.263 195.466 543.373 191.226 528.603C189.886 532.683 192.586 539.403 193.906 543.923C195.226 548.453 197.096 554.643 199.246 558.583C201.406 562.513 200.266 571.163 204.226 573.603Z" fill="#1F2A56" stroke="black"/>
<path d="M510.226 530.603C508.466 534.883 511.546 541.143 510.226 545.603C512.226 545.603 514.226 545.603 516.226 545.603C514.826 541.903 519.366 528.673 513.226 528.603C511.966 529.573 511.296 528.923 510.226 530.603Z" fill="#EE9E5D" stroke="black"/>
<path d="M139.226 547.603C155.476 558.573 171.346 570.143 187.226 581.603C191.396 583.653 192.896 583.063 196.226 579.603C196.006 576.063 191.486 574.673 190.226 571.603C184.526 566.733 178.376 562.823 172.226 558.603C167.676 555.483 160.276 551.013 156.456 547.373C152.636 543.733 142.806 541.343 141.226 536.603C139.456 540.603 134.846 542.523 139.226 547.603Z" fill="#D018D8" stroke="black"/>
<path d="M509.226 554.603C507.876 560.933 507.876 573.273 509.226 579.603C511.276 581.043 513.816 580.533 516.226 580.603C516.226 571.603 516.226 562.603 516.226 553.603C515.166 552.353 509.536 554.883 509.226 554.603Z" fill="#EE9D5C" stroke="black"/>
<path d="M416.226 557.603C419.766 566.093 424.016 564.333 430.476 571.353C436.936 578.373 441.816 570.283 433.456 566.373C425.096 562.473 425.436 555.003 416.226 557.603Z" fill="#2A90CC" stroke="black"/>
<path d="M322.226 557.603C313.946 557.373 322.526 565.853 322.226 557.603V557.603Z" fill="#B7394E" stroke="black"/>
<path d="M304.226 570.603C307.936 572.603 314.786 568.063 311.446 564.383C308.116 560.703 302.926 567.543 304.226 570.603Z" fill="#B83D55" stroke="black"/>
<path d="M636.226 564.603C634.256 566.963 634.876 575.193 638.966 573.343C643.056 571.503 639.466 564.083 636.226 564.603Z" fill="#252E7C" stroke="black"/>
<path d="M105.226 570.603C100.066 568.983 99.8557 578.013 103.976 578.793C108.096 579.573 108.506 571.633 105.226 570.603Z" fill="#501794" stroke="black"/>
<path d="M187.226 581.603C193.826 586.373 192.456 582.593 197.226 578.603C195.436 577.853 191.986 573.103 190.226 571.603C191.486 574.673 196.006 576.063 196.226 579.603C192.896 583.063 191.396 583.653 187.226 581.603Z" fill="#640E74" stroke="black"/>
<path d="M297.226 572.603C292.656 570.873 289.146 578.093 293.206 579.583C297.256 581.063 301.106 574.073 297.226 572.603Z" fill="#9A3452" stroke="black"/>
<path d="M535.226 572.603C527.116 573.403 527.176 586.043 525.226 592.603C532.246 590.363 532.876 579.133 535.226 572.603Z" fill="#1E7FB3" stroke="black"/>
<path d="M446.226 576.603C438.336 575.383 442.816 585.163 447.996 586.833C453.176 588.503 453.286 595.033 459.526 596.253C465.776 597.463 462.876 587.563 457.476 586.353C452.076 585.153 451.336 577.393 446.226 576.603Z" fill="#2A9BD7" stroke="black"/>
<path d="M284.226 585.603C284.706 585.713 285.746 585.703 286.226 585.603C287.446 583.783 288.906 582.073 288.226 579.603C284.516 577.983 279.996 583.303 284.226 585.603Z" fill="#CF435F" stroke="black"/>
<path d="M377.226 589.603C377.506 588.693 377.396 586.543 377.226 585.603C374.116 580.693 370.756 586.713 372.226 590.603C373.466 590.333 376.466 591.123 377.226 589.603Z" fill="#BC374A" stroke="black"/>
<path d="M634.226 592.603C640.986 594.773 640.896 581.403 634.226 583.603C634.226 586.603 634.226 589.603 634.226 592.603Z" fill="#353D97" stroke="black"/>
<path d="M106.226 586.603C102.436 584.363 98.7358 591.913 102.556 594.273C106.366 596.623 109.086 588.293 106.226 586.603Z" fill="#4F1287" stroke="black"/>
<path d="M509.226 604.603C511.016 604.223 513.076 606.753 515.226 604.603C516.406 598.983 519.526 584.923 509.226 587.603C507.656 592.573 511.316 599.863 509.226 604.603Z" fill="#D59051" stroke="black"/>
<path d="M523.226 601.603C521.636 588.253 534.966 601.453 523.226 601.603V601.603Z" fill="#344767" stroke="black"/>
<path d="M109.226 613.603C109.196 613.583 109.906 612.803 110.226 612.603C112.456 610.413 113.336 607.023 116.226 605.603C114.236 602.873 112.176 600.313 110.226 597.603C96.5858 591.433 91.8858 615.483 109.226 613.603Z" fill="#CC13D8" stroke="black"/>
<path d="M483.226 615.603C489.716 610.313 481.876 606.193 477.976 602.853C474.076 599.513 467.116 592.943 465.226 601.603C471.396 606.003 476.596 611.883 483.226 615.603Z" fill="#2F9FE4" stroke="black"/>
<path d="M110.226 612.603C111.996 611.513 114.306 609.883 114.226 607.603C123.806 603.103 136.686 623.193 138.226 605.603C135.296 599.443 129.706 601.953 124.226 604.603C118.746 607.253 114.116 599.363 110.226 597.603C112.176 600.313 114.236 602.873 116.226 605.603C113.336 607.023 112.456 610.413 110.226 612.603Z" fill="#A11BBC" stroke="black"/>
<path d="M550.226 597.603C545.656 595.733 540.886 602.763 545.556 605.273C550.216 607.773 554.656 599.413 550.226 597.603Z" fill="#3B9DC1" stroke="black"/>
<path d="M375.226 598.603C372.716 597.383 370.116 604.223 373.216 605.593C376.316 606.953 377.876 599.893 375.226 598.603Z" fill="#C23E4C" stroke="black"/>
<path d="M489.226 631.603C489.436 632.483 490.696 634.483 491.226 635.603C492.566 638.413 494.956 641.483 497.226 643.603C497.766 644.113 498.626 644.253 499.226 644.603C502.966 646.763 507.746 648.073 512.226 647.603C523.996 646.363 526.836 638.033 530.226 627.603C533.616 617.173 516.606 611.393 515.226 604.603C513.076 606.753 511.016 604.223 509.226 604.603C505.166 605.463 498.036 609.263 493.976 613.353C489.926 617.443 487.816 625.663 489.226 631.603Z" fill="#8CA2EA" stroke="black"/>
<path d="M624.226 605.603C618.796 603.113 615.806 610.713 620.556 613.273C625.296 615.833 628.506 607.563 624.226 605.603Z" fill="#2A57A2" stroke="black"/>
<path d="M532.226 615.603C536.906 617.083 542.856 608.553 536.226 607.603C540.356 612.663 530.936 611.243 532.226 615.603Z" fill="#576471" stroke="black"/>
<path d="M486.226 623.603C485.156 617.883 497.396 610.863 489.226 608.603C489.486 615.883 479.056 618.923 481.226 625.603C484.066 625.953 483.676 619.183 486.226 623.603Z" fill="#1F2128" stroke="black"/>
<path d="M297.226 609.603C291.776 606.953 286.446 612.703 291.556 616.273C296.666 619.843 301.996 611.923 297.226 609.603Z" fill="#2D80BD" stroke="black"/>
<path d="M314.226 610.603C309.356 608.163 302.416 612.493 307.556 616.273C312.696 620.053 319.536 613.273 314.226 610.603Z" fill="#3085C4" stroke="black"/>
<path d="M332.226 611.603C327.006 608.983 319.436 612.983 325.156 616.673C330.866 620.363 337.596 614.303 332.226 611.603Z" fill="#3285BB" stroke="black"/>
<path d="M352.226 618.603C354.286 613.663 344.336 608.963 341.006 613.383C337.686 617.793 348.756 620.403 352.226 618.603Z" fill="#3589BF" stroke="black"/>
<path d="M370.226 619.603C371.186 618.063 373.636 617.743 374.226 615.603C372.356 616.363 370.446 614.943 369.226 614.603C365.766 612.713 357.506 612.403 359.226 618.603C363.136 618.173 366.276 620.233 370.226 619.603Z" fill="#2A87C2" stroke="black"/>
<path d="M391.226 620.603C393.136 613.413 384.846 614.463 380.226 614.603C379.806 620.363 386.916 621.163 391.226 620.603Z" fill="#328ECB" stroke="black"/>
<path d="M409.226 621.603C411.096 614.943 403.716 615.233 399.226 615.603C397.356 622.263 404.736 621.973 409.226 621.603Z" fill="#318DBE" stroke="black"/>
<path d="M416.226 616.603C415.056 621.423 424.966 626.283 428.446 621.823C431.916 617.373 419.516 614.903 416.226 616.603Z" fill="#2B98C8" stroke="black"/>
<path d="M435.226 621.603C436.986 624.303 445.366 625.313 445.226 620.603C442.606 617.863 438.756 618.663 435.226 618.603C435.386 619.573 435.036 620.643 435.226 621.603Z" fill="#3EA6D4" stroke="black"/>
<path d="M462.226 624.603C463.636 620.353 456.776 616.123 453.336 619.713C449.896 623.293 458.646 626.303 462.226 624.603Z" fill="#36A7D6" stroke="black"/>
<path d="M478.226 624.603C479.726 619.133 473.936 619.173 470.226 619.603C468.426 625.583 474.196 624.843 478.226 624.603Z" fill="#24A5CF" stroke="black"/>
<path d="M613.226 626.603C612.986 626.803 612.986 628.293 613.226 628.603C613.906 629.483 617.276 633.083 618.226 633.603C631.286 639.643 633.286 619.413 621.226 620.603C620.206 620.793 614.286 625.753 613.226 626.603Z" fill="#187FCA" stroke="black"/>
<path d="M543.226 626.603C543.326 621.943 537.056 623.753 535.226 625.603C537.556 627.213 540.506 626.433 543.226 626.603Z" fill="#37537C" stroke="black"/>
<path d="M375.226 624.603C374.766 624.483 372.646 624.393 372.226 624.603C372.226 626.933 372.226 629.273 372.226 631.603C376.506 634.143 377.836 626.023 375.226 624.603Z" fill="#9C3E47" stroke="black"/>
<path d="M583.226 628.603C586.426 628.593 585.396 629.463 588.226 627.603C588.226 626.603 588.226 625.603 588.226 624.603C581.026 625.223 571.166 623.773 564.226 624.603C557.286 625.433 546.306 621.233 545.226 628.603C557.896 628.573 570.556 628.643 583.226 628.603Z" fill="#E5A46C" stroke="black"/>
<path d="M613.226 628.603C612.986 628.293 612.986 626.803 613.226 626.603C605.716 627.243 596.986 625.303 590.226 627.603C595.786 627.433 607.216 631.283 613.226 628.603Z" fill="#1A65A8" stroke="black"/>
<path d="M583.226 628.603C583.276 628.623 584.126 630.423 584.226 630.603C586.706 635.093 583.626 642.243 586.226 646.603C589.126 642.013 585.306 634.123 588.226 629.603C587.976 629.343 588.206 628.103 588.226 627.603C585.396 629.463 586.426 628.593 583.226 628.603Z" fill="#B53946" stroke="black"/>
<path d="M584.226 630.603C584.596 632.053 584.226 634.103 584.226 635.603C587.876 643.073 579.566 650.323 578.226 655.603C576.876 660.873 571.536 667.923 566.256 669.573C560.976 671.223 553.626 664.553 550.476 660.353C547.326 656.163 539.826 651.953 536.976 647.853C534.126 643.743 524.036 637.173 525.476 644.353C526.906 651.543 536.296 651.183 539.476 656.353C542.656 661.523 548.386 665.113 553.226 667.603C549.386 673.523 554.336 684.083 561.196 681.573C568.066 679.063 567.886 675.123 572.976 670.353C578.076 665.583 581.456 663.023 588.476 662.853C595.506 662.693 594.336 649.583 588.226 649.603C588.226 643.933 588.226 638.273 588.226 632.603C588.226 632.183 588.496 629.883 588.226 629.603C585.306 634.123 589.126 642.013 586.226 646.603C583.626 642.243 586.706 635.093 584.226 630.603Z" fill="#731F3B" stroke="black"/>
<path d="M490.226 637.603C490.026 637.983 491.326 635.033 491.226 635.603C490.696 634.483 489.436 632.483 489.226 631.603C484.426 629.383 477.586 641.253 473.906 643.283C470.226 645.313 461.796 650.833 458.926 654.303C456.046 657.773 443.856 662.383 445.306 667.513C446.766 672.653 457.056 663.893 459.996 660.373C462.936 656.853 472.336 653.033 475.976 649.353C479.616 645.683 487.096 641.983 490.226 637.603Z" fill="#76263C" stroke="black"/>
<path d="M282.226 644.603C269.416 644.313 282.956 631.313 282.226 644.603V644.603Z" fill="#3C1836" stroke="black"/>
<path d="M372.226 640.603C371.376 643.033 372.276 651.233 375.446 648.823C378.616 646.413 375.926 639.283 372.226 640.603Z" fill="#A72E44" stroke="black"/>
<path d="M495.226 656.603C495.226 659.273 495.226 661.933 495.226 664.603C495.226 668.603 496.436 674.823 495.226 678.603C490.196 681.683 485.646 688.503 491.006 693.823C496.366 699.153 508.516 689.193 502.976 683.853C497.446 678.513 498.216 671.543 499.226 664.603C500.236 657.663 501.276 646.553 495.226 644.603C495.226 648.603 495.226 652.603 495.226 656.603ZM498.226 680.603C505.766 682.543 501.256 696.863 493.226 693.603C485.196 690.343 491.726 678.933 498.226 680.603Z" fill="#5D233A" stroke="black"/>
<path d="M293.226 651.603C279.416 652.863 293.046 638.553 293.226 651.603V651.603Z" fill="#50183C" stroke="black"/>
<path d="M412.226 662.603C415.936 665.383 427.806 663.173 423.976 658.863C420.136 654.553 413.276 663.483 409.976 656.853C406.686 650.213 400.266 655.143 399.226 659.603C393.486 660.143 383.056 655.083 380.226 661.603C386.306 663.023 393.156 663.033 399.226 661.603C399.176 668.593 410.116 668.313 412.226 662.603ZM407.226 655.603C413.566 657.563 409.676 668.863 403.226 665.603C396.776 662.343 401.906 653.963 407.226 655.603Z" fill="#2A0E2C" stroke="black"/>
<path d="M407.226 655.603C401.906 653.963 396.776 662.343 403.226 665.603C409.676 668.863 413.566 657.563 407.226 655.603Z" fill="#66143B" stroke="black"/>
<path d="M376.226 656.603C371.716 653.753 369.006 662.633 372.996 664.813C376.986 666.993 379.166 658.463 376.226 656.603Z" fill="#772237" stroke="black"/>
<path d="M309.226 665.603C298.286 665.813 308.436 655.483 309.226 665.603V665.603Z" fill="#5A213F" stroke="black"/>
<path d="M328.226 681.603C326.896 687.643 328.266 696.703 335.556 693.933C342.836 691.173 341.096 700.783 347.546 701.263C353.996 701.743 351.166 694.663 346.306 692.523C341.456 690.373 346.466 679.773 341.896 676.933C337.326 674.093 329.376 681.173 325.476 677.353C321.586 673.533 320.356 668.523 314.226 668.603C313.116 676.743 323.656 678.613 328.226 681.603ZM342.226 678.603C346.366 685.593 337.406 697.743 330.486 690.343C323.566 682.953 334.986 674.763 342.226 678.603Z" fill="#331333" stroke="black"/>
<path d="M438.226 671.603C434.046 669.113 428.406 679.013 423.976 681.353C419.536 683.683 416.236 686.223 410.476 690.853C404.716 695.473 411.886 698.443 416.146 693.523C420.406 688.603 426.656 687.223 429.476 683.853C432.296 680.483 443.796 674.923 438.226 671.603Z" fill="#631E3F" stroke="black"/>
<path d="M375.226 672.603C372.256 671.163 370.456 679.133 373.526 680.243C376.596 681.353 377.546 673.733 375.226 672.603Z" fill="#79213A" stroke="black"/>
<path d="M342.226 678.603C334.986 674.763 323.566 682.953 330.486 690.343C337.406 697.743 346.366 685.593 342.226 678.603Z" fill="#79163F" stroke="black"/>
<path d="M498.226 680.603C491.726 678.933 485.196 690.343 493.226 693.603C501.256 696.863 505.766 682.543 498.226 680.603Z" fill="#81113F" stroke="black"/>
<path d="M376.226 686.603C372.876 685.133 368.526 690.883 372.006 693.823C375.476 696.763 377.596 689.533 376.226 686.603Z" fill="#431329" stroke="black"/>
<path d="M406.226 699.603C403.026 696.083 394.466 698.923 396.306 704.523C398.156 710.113 406.106 703.053 406.226 699.603Z" fill="#2E1532" stroke="black"/>
<path d="M360.226 708.603C362.886 703.613 354.056 698.083 353.226 704.603C356.516 704.883 356.886 709.353 360.226 708.603Z" fill="#1F1438" stroke="black"/>
<path d="M381.226 704.603C374.106 702.443 363.496 706.303 361.226 714.603C358.946 722.903 344.966 718.533 336.226 719.603C327.486 720.673 318.026 719.723 311.446 714.383C304.866 709.043 293.046 720.793 299.976 727.853C306.906 734.913 311.086 731.683 317.486 725.863C323.886 720.033 337.806 727.403 346.226 724.603C354.646 721.803 363.266 726.083 369.206 731.623C375.136 737.173 387.046 729.633 389.296 723.673C391.556 717.723 388.236 706.733 381.226 704.603Z" fill="#2B3089" stroke="black"/>
<path d="M499.226 709.603C488.136 709.813 495.476 723.513 494.226 731.603C492.976 739.693 495.166 751.203 494.226 759.603C487.486 761.473 487.446 767.183 480.226 767.603C473.006 768.023 471.076 763.343 465.226 760.603C466.046 750.313 463.486 741.593 467.446 731.823C471.416 722.063 465.476 717.743 456.226 720.603C446.976 723.463 435.836 719.113 426.226 720.603C416.616 722.093 405.926 719.483 396.226 720.603C402.456 727.763 417.786 723.623 427.226 724.603C436.666 725.583 453.436 720.973 455.476 731.353C457.506 741.743 463.776 751.073 458.146 761.523C452.516 771.973 461.726 781.973 471.006 775.383C480.276 768.793 494.486 782.573 500.456 773.833C506.426 765.093 496.056 754.263 499.226 743.603C502.396 732.943 496.846 720.433 499.226 709.603Z" fill="#60153D" stroke="black"/>
<path d="M40.704 941.032C39.3387 940.861 36.5227 940.562 32.256 940.136C28.0747 939.709 24.448 939.496 21.376 939.496C18.56 939.496 15.4027 939.666 11.904 940.008C8.40533 940.349 6.144 940.605 5.12 940.776L5.888 932.2C9.55733 931.602 12.032 930.536 13.312 929C14.592 927.464 15.232 924.904 15.232 921.32V872.552C15.232 869.821 14.976 867.986 14.464 867.048C13.952 866.109 12.8853 865.64 11.264 865.64C10.3253 865.64 9.42933 865.682 8.576 865.768C7.72267 865.853 7.168 865.896 6.912 865.896L6.272 864.744L7.296 856.936C8.49067 856.936 10.7093 857.021 13.952 857.192C17.1947 857.277 20.352 857.32 23.424 857.32C27.1787 857.32 31.104 857.277 35.2 857.192C39.296 857.021 42.112 856.893 43.648 856.808C52.1813 856.808 59.5627 858.344 65.792 861.416C72.0213 864.488 76.8 868.882 80.128 874.6C83.456 880.317 85.12 887.144 85.12 895.08C85.12 903.954 83.2 911.89 79.36 918.888C75.6053 925.885 70.3573 931.346 63.616 935.272C56.8747 939.112 49.2373 941.032 40.704 941.032ZM36.736 867.56C35.3707 867.56 34.432 867.773 33.92 868.2C33.408 868.626 33.1093 869.437 33.024 870.632C31.9147 894.44 31.36 911.208 31.36 920.936C31.36 923.496 31.6587 925.458 32.256 926.824C32.8533 928.104 33.92 929 35.456 929.512C37.0773 930.024 39.3813 930.28 42.368 930.28C49.8773 930.28 55.5947 927.634 59.52 922.344C63.5307 917.053 65.536 909.288 65.536 899.048C65.536 888.21 63.1467 880.274 58.368 875.24C53.6747 870.12 46.464 867.56 36.736 867.56ZM94.251 933.224C97.323 932.626 99.3283 931.816 100.267 930.792C101.206 929.682 101.675 927.72 101.675 924.904L101.803 887.656C101.803 885.608 101.547 884.242 101.035 883.56C100.523 882.877 99.499 882.536 97.963 882.536H94.507L93.995 881.512L94.635 875.24L109.867 875.368C111.744 875.368 114.518 875.282 118.187 875.112C121.856 874.941 124.288 874.813 125.483 874.728L124.843 882.024C122.198 882.365 120.448 882.877 119.595 883.56C118.827 884.242 118.358 885.522 118.187 887.4C117.334 899.944 116.907 912.701 116.907 925.672C116.907 928.402 117.163 930.237 117.675 931.176C118.187 932.029 119.254 932.456 120.875 932.456C121.984 932.456 122.88 932.413 123.563 932.328C124.331 932.242 124.843 932.2 125.099 932.2L125.739 932.968L124.843 939.752C123.648 939.752 121.387 939.709 118.059 939.624C114.816 939.538 111.702 939.496 108.715 939.496C106.24 939.496 103.339 939.581 100.011 939.752C96.683 940.008 94.507 940.178 93.483 940.264L94.251 933.224ZM165.331 940.648C155.518 940.648 147.795 937.832 142.163 932.2C136.531 926.568 133.715 918.845 133.715 909.032C133.715 898.109 137.043 889.576 143.699 883.432C150.355 877.288 159.614 874.216 171.475 874.216C174.206 874.216 177.107 874.429 180.179 874.856C183.336 875.197 186.024 875.581 188.243 876.008C190.462 876.349 191.87 876.605 192.467 876.776L193.235 878.184C193.15 878.61 192.894 879.677 192.467 881.384C192.126 883.005 191.742 885.224 191.315 888.04C190.888 890.77 190.59 893.714 190.419 896.872L178.899 897.64C178.899 897.384 178.942 896.786 179.027 895.848C179.112 894.824 179.155 893.629 179.155 892.264C179.155 889.533 178.344 887.613 176.723 886.504C175.187 885.394 172.584 884.84 168.915 884.84C162.942 884.84 158.547 886.504 155.731 889.832C152.915 893.16 151.507 898.408 151.507 905.576C151.507 913.597 152.915 919.698 155.731 923.88C158.547 928.061 162.643 930.152 168.019 930.152C169.726 930.152 171.262 929.981 172.627 929.64C173.992 929.298 175.059 928.957 175.827 928.616C176.595 928.274 177.064 928.061 177.235 927.976V919.4C177.235 917.522 176.936 916.285 176.339 915.688C175.827 915.09 174.675 914.792 172.883 914.792H167.763L167.123 913.768L168.403 906.088L183.251 906.216C185.47 906.216 187.688 906.173 189.907 906.088C192.211 905.917 193.704 905.789 194.387 905.704L195.155 910.184C193.79 910.952 192.808 911.89 192.211 913C191.614 914.024 191.187 915.56 190.931 917.608C190.76 919.656 190.675 922.77 190.675 926.952C190.675 930.365 190.888 933.224 191.315 935.528L190.291 936.936C189.779 937.106 188.499 937.49 186.451 938.088C184.403 938.685 181.502 939.24 177.747 939.752C174.078 940.349 169.939 940.648 165.331 940.648ZM206.251 933.224C209.323 932.626 211.328 931.816 212.267 930.792C213.206 929.682 213.675 927.72 213.675 924.904L213.803 887.656C213.803 885.608 213.547 884.242 213.035 883.56C212.523 882.877 211.499 882.536 209.963 882.536H206.507L205.995 881.512L206.635 875.24L221.867 875.368C223.744 875.368 226.518 875.282 230.187 875.112C233.856 874.941 236.288 874.813 237.483 874.728L236.843 882.024C234.198 882.365 232.448 882.877 231.595 883.56C230.827 884.242 230.358 885.522 230.187 887.4C229.334 899.944 228.907 912.701 228.907 925.672C228.907 928.402 229.163 930.237 229.675 931.176C230.187 932.029 231.254 932.456 232.875 932.456C233.984 932.456 234.88 932.413 235.563 932.328C236.331 932.242 236.843 932.2 237.099 932.2L237.739 932.968L236.843 939.752C235.648 939.752 233.387 939.709 230.059 939.624C226.816 939.538 223.702 939.496 220.715 939.496C218.24 939.496 215.339 939.581 212.011 939.752C208.683 940.008 206.507 940.178 205.483 940.264L206.251 933.224ZM253.556 932.84C256.799 932.584 259.145 932.2 260.596 931.688C262.047 931.09 262.985 930.194 263.412 929C263.924 927.72 264.18 925.714 264.18 922.984V884.328C260.767 884.413 258.292 884.754 256.756 885.352C255.305 885.949 254.239 887.101 253.556 888.808C252.873 890.514 252.276 893.416 251.764 897.512L242.036 898.152C242.121 896.701 242.292 893.629 242.548 888.936C242.889 884.157 243.103 879.677 243.188 875.496L244.468 874.216L255.348 875.368H288.372L299.508 874.216L300.788 875.496C300.873 879.848 301.001 884.285 301.172 888.808C301.428 893.33 301.599 896.232 301.684 897.512L291.956 898.152C291.444 893.714 290.847 890.6 290.164 888.808C289.567 887.016 288.585 885.864 287.22 885.352C285.855 884.754 283.551 884.413 280.308 884.328C279.625 894.056 279.284 907.752 279.284 925.416C279.284 927.89 279.711 929.64 280.564 930.664C281.417 931.688 282.911 932.2 285.044 932.2C286.409 932.2 287.604 932.157 288.628 932.072C289.652 931.986 290.292 931.944 290.548 931.944L290.932 932.456L290.036 940.008C288.585 939.922 285.94 939.794 282.1 939.624C278.26 939.538 274.591 939.496 271.092 939.496C268.617 939.496 265.289 939.581 261.108 939.752C256.927 940.008 254.153 940.178 252.788 940.264L253.556 932.84ZM336.932 940.648C327.375 940.648 319.865 937.874 314.404 932.328C309.028 926.696 306.34 918.93 306.34 909.032C306.34 901.949 307.748 895.805 310.564 890.6C313.38 885.309 317.391 881.256 322.596 878.44C327.887 875.624 334.031 874.216 341.028 874.216C350.756 874.216 358.308 876.989 363.684 882.536C369.06 887.997 371.748 895.677 371.748 905.576C371.748 912.658 370.297 918.845 367.396 924.136C364.58 929.426 360.527 933.522 355.236 936.424C350.031 939.24 343.929 940.648 336.932 940.648ZM339.492 931.048C344.1 931.048 347.641 929.341 350.116 925.928C352.591 922.514 353.828 917.565 353.828 911.08C353.828 902.376 352.463 895.848 349.732 891.496C347.087 887.144 343.247 884.968 338.212 884.968C333.689 884.968 330.233 886.632 327.844 889.96C325.455 893.288 324.26 898.237 324.26 904.808C324.26 913.597 325.54 920.168 328.1 924.52C330.745 928.872 334.543 931.048 339.492 931.048ZM381.385 932.968C384.116 932.541 385.95 931.73 386.889 930.536C387.913 929.341 388.425 927.378 388.425 924.648L388.553 887.912C388.553 885.778 388.297 884.37 387.785 883.688C387.358 882.92 386.548 882.536 385.353 882.536L381.641 882.664L380.873 881.768L381.897 875.24L395.465 875.368C398.281 875.368 401.396 875.325 404.809 875.24C408.308 875.069 410.74 874.941 412.105 874.856C421.577 874.856 428.276 876.776 432.201 880.616C436.212 884.37 438.217 888.978 438.217 894.44C438.217 898.45 437.022 902.205 434.633 905.704C432.244 909.202 429.086 912.018 425.161 914.152C421.321 916.285 417.182 917.352 412.745 917.352H403.785L403.657 924.008C403.657 926.397 403.785 928.189 404.041 929.384C404.297 930.493 404.766 931.261 405.449 931.688C406.132 932.114 407.198 932.328 408.649 932.328L413.129 932.2L413.513 932.84L412.489 939.752C411.38 939.752 409.417 939.709 406.601 939.624C403.785 939.538 401.097 939.496 398.537 939.496C396.318 939.496 393.076 939.581 388.809 939.752C384.628 940.008 381.854 940.178 380.489 940.264L381.385 932.968ZM412.873 908.776C418.846 907.41 421.833 903.101 421.833 895.848C421.833 891.922 420.638 889.064 418.249 887.272C415.945 885.394 412.276 884.456 407.241 884.456C406.302 884.456 405.705 884.584 405.449 884.84C405.193 885.01 405.022 885.522 404.937 886.376C404.425 894.824 404.126 901.906 404.041 907.624L412.873 908.776ZM444.876 933.224C447.948 932.626 449.953 931.816 450.892 930.792C451.831 929.682 452.3 927.72 452.3 924.904L452.428 887.656C452.428 885.608 452.172 884.242 451.66 883.56C451.148 882.877 450.124 882.536 448.588 882.536H445.132L444.62 881.512L445.26 875.24L460.492 875.368C462.369 875.368 465.143 875.282 468.812 875.112C472.481 874.941 474.913 874.813 476.108 874.728L475.468 882.024C472.823 882.365 471.073 882.877 470.22 883.56C469.452 884.242 468.983 885.522 468.812 887.4C467.959 899.944 467.532 912.701 467.532 925.672C467.532 928.402 467.788 930.237 468.3 931.176C468.812 932.029 469.879 932.456 471.5 932.456C472.609 932.456 473.505 932.413 474.188 932.328C474.956 932.242 475.468 932.2 475.724 932.2L476.364 932.968L475.468 939.752C474.273 939.752 472.012 939.709 468.684 939.624C465.441 939.538 462.327 939.496 459.34 939.496C456.865 939.496 453.964 939.581 450.636 939.752C447.308 940.008 445.132 940.178 444.108 940.264L444.876 933.224ZM514.721 939.496L515.233 932.84C517.708 932.584 519.457 932.37 520.481 932.2C521.505 931.944 522.188 931.602 522.529 931.176C522.956 930.749 523.169 930.109 523.169 929.256C523.169 928.317 522.998 927.336 522.657 926.312L520.865 919.656C519.073 919.57 515.958 919.528 511.521 919.528C509.558 919.528 506.316 919.741 501.793 920.168L499.489 926.824C499.148 928.104 498.977 929.042 498.977 929.64C498.977 930.749 499.276 931.517 499.873 931.944C500.556 932.285 501.793 932.456 503.585 932.456H507.553L508.193 933.352L507.425 940.008C506.401 939.922 504.225 939.794 500.897 939.624C497.654 939.538 494.625 939.496 491.809 939.496C488.822 939.496 486.092 939.538 483.617 939.624C481.228 939.709 479.649 939.752 478.881 939.752L479.649 932.584C481.185 932.328 482.422 931.73 483.361 930.792C484.385 929.768 485.324 928.274 486.177 926.312L504.609 875.88L523.425 874.216L524.705 874.984C525.729 878.824 527.905 886.674 531.233 898.536C534.561 910.397 537.292 919.485 539.425 925.8C540.108 928.104 541.004 929.768 542.113 930.792C543.308 931.816 545.014 932.413 547.233 932.584L547.745 933.352L546.977 939.752C546.038 939.752 544.246 939.709 541.601 939.624C539.041 939.538 536.396 939.496 533.665 939.496C529.825 939.496 526.07 939.581 522.401 939.752C518.732 940.008 516.385 940.178 515.361 940.264L514.721 939.496ZM511.521 910.568C514.337 910.568 516.812 910.44 518.945 910.184L513.185 889.448H511.649L504.609 910.568H511.521ZM555.674 935.4C558.917 934.802 561.093 933.949 562.202 932.84C563.311 931.645 563.866 929.64 563.866 926.824L563.994 886.12C563.994 883.986 563.738 882.578 563.226 881.896C562.714 881.128 561.69 880.744 560.154 880.744L555.93 880.872L555.674 880.36L556.314 875.496C556.826 875.496 558.191 875.538 560.41 875.624C562.714 875.709 565.701 875.752 569.37 875.752C571.333 875.752 573.722 875.624 576.538 875.368C579.439 875.112 581.317 874.941 582.17 874.856L581.658 880.104C578.842 880.445 576.965 881 576.026 881.768C575.087 882.45 574.533 883.773 574.362 885.736C574.021 892.562 573.679 900.114 573.338 908.392C573.082 916.669 572.954 923.069 572.954 927.592C572.954 930.322 573.253 932.157 573.85 933.096C574.447 934.034 575.642 934.504 577.434 934.504C578.629 934.504 579.695 934.461 580.634 934.376C581.658 934.29 582.341 934.205 582.682 934.12L582.938 934.632L582.042 939.752C581.018 939.752 579.098 939.709 576.282 939.624C573.466 939.538 570.65 939.496 567.834 939.496C565.53 939.496 563.013 939.624 560.282 939.88C557.637 940.221 555.887 940.477 555.034 940.648L555.674 935.4ZM648.133 885.096C648.133 882.28 646.981 880.872 644.677 880.872H640.837L640.581 880.36L641.477 875.368C642.245 875.453 643.696 875.538 645.829 875.624C647.962 875.709 650.138 875.752 652.357 875.752C654.234 875.752 656.325 875.666 658.629 875.496C661.018 875.24 662.554 875.069 663.237 874.984L662.725 880.232C660.25 880.573 658.458 881.256 657.349 882.28C656.325 883.218 655.77 884.669 655.685 886.632L654.149 941.672L649.157 943.08C641.05 931.218 632.858 919.613 624.581 908.264C616.304 896.914 612.165 891.325 612.165 891.496H611.525L611.141 930.28C611.141 931.901 611.397 933.01 611.909 933.608C612.421 934.205 613.274 934.504 614.469 934.504L619.589 934.376L619.973 934.76L618.949 939.88C618.181 939.794 616.645 939.709 614.341 939.624C612.122 939.538 609.776 939.496 607.301 939.496C605.338 939.496 603.248 939.581 601.029 939.752C598.81 940.008 597.36 940.178 596.677 940.264L597.317 935.016C599.45 934.76 601.029 934.162 602.053 933.224C603.077 932.2 603.632 930.706 603.717 928.744L605.125 886.504C605.125 884.37 604.485 882.92 603.205 882.152C602.01 881.298 599.664 880.658 596.165 880.232L595.653 879.592L596.549 875.24C597.232 875.325 598.512 875.453 600.389 875.624C602.352 875.709 604.314 875.752 606.277 875.752C608.154 875.752 609.818 875.709 611.269 875.624C612.72 875.538 613.658 875.453 614.085 875.368C620.997 885.522 628.293 895.89 635.973 906.472C643.738 917.053 647.621 922.258 647.621 922.088H648.261L648.133 885.096ZM704.358 940.648C694.715 940.648 687.078 937.874 681.446 932.328C675.814 926.781 672.998 919.229 672.998 909.672C672.998 902.93 674.534 896.914 677.606 891.624C680.763 886.248 685.115 882.066 690.662 879.08C696.294 876.093 702.651 874.6 709.734 874.6C712.294 874.6 714.939 874.77 717.67 875.112C720.486 875.453 722.833 875.837 724.71 876.264C726.673 876.69 727.91 876.946 728.422 877.032L728.934 877.8C728.849 878.226 728.635 879.25 728.294 880.872C727.953 882.408 727.569 884.456 727.142 887.016C726.715 889.576 726.417 892.306 726.246 895.208L719.846 895.592C719.846 895.336 719.889 894.738 719.974 893.8C720.059 892.861 720.102 891.794 720.102 890.6C720.102 884.626 715.323 881.64 705.766 881.64C699.11 881.64 693.862 883.858 690.022 888.296C686.182 892.648 684.262 898.664 684.262 906.344C684.262 914.877 686.267 921.661 690.278 926.696C694.374 931.73 699.835 934.248 706.662 934.248C711.185 934.248 714.769 933.053 717.414 930.664C720.145 928.189 722.107 924.349 723.302 919.144L729.702 918.632C729.446 919.656 728.977 921.96 728.294 925.544C727.697 929.128 727.27 932.498 727.014 935.656L726.246 936.68C725.734 936.85 724.497 937.277 722.534 937.96C720.657 938.557 718.097 939.154 714.854 939.752C711.611 940.349 708.113 940.648 704.358 940.648Z" fill="white"/>
</svg>
